<svg xmlns="http://www.w3.org/2000/svg" viewBox="0 0 1200 630" width="1200" height="630"><rect width="1200" height="630" fill="#0a1628"/><text x="600" y="50" font-family="sans-serif" font-size="26" fill="#e2e8f0" text-anchor="middle" font-weight="bold">スポット外注 活用企業の例</text><rect x="40" y="90" width="350" height="460" rx="20" fill="#1d4ed8"/><text x="215" y="210" font-family="sans-serif" font-size="80" fill="#fff" text-anchor="middle" font-weight="normal">🚀</text><text x="215" y="315" font-family="sans-serif" font-size="22" fill="#fff" text-anchor="middle" font-weight="bold">スタートアップ</text><text x="215" y="355" font-family="sans-serif" font-size="16" fill="#bfdbfe" text-anchor="middle" font-weight="normal">採用前にMVP開発</text><rect x="65" y="400" width="300" height="60" rx="10" fill="rgba(0,0,0,0.25)"/><text x="215" y="438" font-family="sans-serif" font-size="15" fill="#6ee7b7" text-anchor="middle" font-weight="bold">採用ゼロ・即日稼働</text><rect x="430" y="90" width="350" height="460" rx="20" fill="#0891b2"/><text x="605" y="210" font-family="sans-serif" font-size="80" fill="#fff" text-anchor="middle" font-weight="normal">🏢</text><text x="605" y="315" font-family="sans-serif" font-size="22" fill="#fff" text-anchor="middle" font-weight="bold">中堅企業</text><text x="605" y="355" font-family="sans-serif" font-size="16" fill="#bfdbfe" text-anchor="middle" font-weight="normal">繁忙期の即戦力補強</text><rect x="455" y="400" width="300" height="60" rx="10" fill="rgba(0,0,0,0.25)"/><text x="605" y="438" font-family="sans-serif" font-size="15" fill="#6ee7b7" text-anchor="middle" font-weight="bold">採用ゼロ・即日稼働</text><rect x="820" y="90" width="350" height="460" rx="20" fill="#059669"/><text x="995" y="210" font-family="sans-serif" font-size="80" fill="#fff" text-anchor="middle" font-weight="normal">🌐</text><text x="995" y="315" font-family="sans-serif" font-size="22" fill="#fff" text-anchor="middle" font-weight="bold">Web事業者</text><text x="995" y="355" font-family="sans-serif" font-size="16" fill="#bfdbfe" text-anchor="middle" font-weight="normal">機能追加を即依頼</text><rect x="845" y="400" width="300" height="60" rx="10" fill="rgba(0,0,0,0.25)"/><text x="995" y="438" font-family="sans-serif" font-size="15" fill="#6ee7b7" text-anchor="middle" font-weight="bold">採用ゼロ・即日稼働</text></svg>