<svg xmlns="http://www.w3.org/2000/svg" viewBox="0 0 1200 630" width="1200" height="630"><rect width="1200" height="630" fill="#0f172a"/><text x="600" y="50" font-family="sans-serif" font-size="26" fill="#e2e8f0" text-anchor="middle" font-weight="bold">ノーコード限界とスポット発注の対比</text><rect x="40" y="100" width="500" height="440" rx="20" fill="#7f1d1d"/><text x="290" y="185" font-family="sans-serif" font-size="80" fill="#fff" text-anchor="middle" font-weight="normal">🧱</text><text x="290" y="280" font-family="sans-serif" font-size="24" fill="#fca5a5" text-anchor="middle" font-weight="bold">ノーコードの限界</text><rect x="65" y="315" width="420" height="44" rx="8" fill="#991b1b"/><text x="275" y="344" font-family="sans-serif" font-size="15" fill="#fecaca" text-anchor="middle" font-weight="normal">❌ 複雑なロジックが組めない</text><rect x="65" y="370" width="420" height="44" rx="8" fill="#991b1b"/><text x="275" y="399" font-family="sans-serif" font-size="15" fill="#fecaca" text-anchor="middle" font-weight="normal">❌ 外部API連携に制限あり</text><rect x="65" y="425" width="420" height="44" rx="8" fill="#991b1b"/><text x="275" y="454" font-family="sans-serif" font-size="15" fill="#fecaca" text-anchor="middle" font-weight="normal">❌ カスタマイズが困難</text><rect x="660" y="100" width="500" height="440" rx="20" fill="#064e3b"/><text x="910" y="185" font-family="sans-serif" font-size="80" fill="#fff" text-anchor="middle" font-weight="normal">⚡</text><text x="910" y="280" font-family="sans-serif" font-size="24" fill="#6ee7b7" text-anchor="middle" font-weight="bold">週末スポット発注</text><rect x="680" y="315" width="460" height="44" rx="8" fill="#065f46"/><text x="910" y="344" font-family="sans-serif" font-size="15" fill="#a7f3d0" text-anchor="middle" font-weight="normal">✅ フルカスタム開発</text><rect x="680" y="370" width="460" height="44" rx="8" fill="#065f46"/><text x="910" y="399" font-family="sans-serif" font-size="15" fill="#a7f3d0" text-anchor="middle" font-weight="normal">✅ API・AI完全対応</text><rect x="680" y="425" width="460" height="44" rx="8" fill="#065f46"/><text x="910" y="454" font-family="sans-serif" font-size="15" fill="#a7f3d0" text-anchor="middle" font-weight="normal">✅ 週末2日で基盤完成</text><text x="600" y="315" font-family="sans-serif" font-size="24" fill="#64748b" text-anchor="middle" font-weight="bold">VS</text></svg>