<svg xmlns="http://www.w3.org/2000/svg" viewBox="0 0 1200 630" width="1200" height="630">
  <defs>
  <linearGradient id="bgC1" x1="0%" y1="0%" x2="100%" y2="100%">
    <stop offset="0%" stop-color="#1B3A5C"/>
    <stop offset="50%" stop-color="#1a4a6e"/>
    <stop offset="100%" stop-color="#0F2540"/>
  </linearGradient>
  </defs>
<rect width="1200" height="630" fill="url(#bgC1)"/>
<line x1="0" y1="0" x2="0" y2="630" stroke="#2E75B6" stroke-width="0.5" opacity="0.08"/>
<line x1="80" y1="0" x2="80" y2="630" stroke="#2E75B6" stroke-width="0.5" opacity="0.08"/>
<line x1="160" y1="0" x2="160" y2="630" stroke="#2E75B6" stroke-width="0.5" opacity="0.08"/>
<line x1="240" y1="0" x2="240" y2="630" stroke="#2E75B6" stroke-width="0.5" opacity="0.08"/>
<line x1="320" y1="0" x2="320" y2="630" stroke="#2E75B6" stroke-width="0.5" opacity="0.08"/>
<line x1="400" y1="0" x2="400" y2="630" stroke="#2E75B6" stroke-width="0.5" opacity="0.08"/>
<line x1="480" y1="0" x2="480" y2="630" stroke="#2E75B6" stroke-width="0.5" opacity="0.08"/>
<line x1="560" y1="0" x2="560" y2="630" stroke="#2E75B6" stroke-width="0.5" opacity="0.08"/>
<line x1="640" y1="0" x2="640" y2="630" stroke="#2E75B6" stroke-width="0.5" opacity="0.08"/>
<line x1="720" y1="0" x2="720" y2="630" stroke="#2E75B6" stroke-width="0.5" opacity="0.08"/>
<line x1="800" y1="0" x2="800" y2="630" stroke="#2E75B6" stroke-width="0.5" opacity="0.08"/>
<line x1="880" y1="0" x2="880" y2="630" stroke="#2E75B6" stroke-width="0.5" opacity="0.08"/>
<line x1="960" y1="0" x2="960" y2="630" stroke="#2E75B6" stroke-width="0.5" opacity="0.08"/>
<line x1="1040" y1="0" x2="1040" y2="630" stroke="#2E75B6" stroke-width="0.5" opacity="0.08"/>
<line x1="1120" y1="0" x2="1120" y2="630" stroke="#2E75B6" stroke-width="0.5" opacity="0.08"/>
<line x1="1200" y1="0" x2="1200" y2="630" stroke="#2E75B6" stroke-width="0.5" opacity="0.08"/>
<line x1="0" y1="0" x2="1200" y2="0" stroke="#2E75B6" stroke-width="0.5" opacity="0.08"/>
<line x1="0" y1="80" x2="1200" y2="80" stroke="#2E75B6" stroke-width="0.5" opacity="0.08"/>
<line x1="0" y1="160" x2="1200" y2="160" stroke="#2E75B6" stroke-width="0.5" opacity="0.08"/>
<line x1="0" y1="240" x2="1200" y2="240" stroke="#2E75B6" stroke-width="0.5" opacity="0.08"/>
<line x1="0" y1="320" x2="1200" y2="320" stroke="#2E75B6" stroke-width="0.5" opacity="0.08"/>
<line x1="0" y1="400" x2="1200" y2="400" stroke="#2E75B6" stroke-width="0.5" opacity="0.08"/>
<line x1="0" y1="480" x2="1200" y2="480" stroke="#2E75B6" stroke-width="0.5" opacity="0.08"/>
<line x1="0" y1="560" x2="1200" y2="560" stroke="#2E75B6" stroke-width="0.5" opacity="0.08"/>
<rect x="60" y="80" width="460" height="460" fill="#fff" rx="16" opacity="0.06" stroke="none" stroke-width="0"/>
<rect x="60" y="80" width="460" height="56" fill="#1B3A5C" rx="0" opacity="1.0" stroke="none" stroke-width="0"/>
<text x="290" y="118" font-family="Noto Sans JP,Hiragino Sans,Meiryo,sans-serif" font-size="18" fill="#fff" font-weight="bold" text-anchor="middle" opacity="1.0">WEEKLY SCHEDULE</text>
<rect x="60" y="136" width="65" height="28" fill="#0F2540" rx="0" opacity="0.15" stroke="none" stroke-width="0"/>
<text x="92" y="155" font-family="Noto Sans JP,Hiragino Sans,Meiryo,sans-serif" font-size="14" fill="#888888" font-weight="bold" text-anchor="middle" opacity="1.0">月</text>
<rect x="125" y="136" width="65" height="28" fill="#0F2540" rx="0" opacity="0.15" stroke="none" stroke-width="0"/>
<text x="157" y="155" font-family="Noto Sans JP,Hiragino Sans,Meiryo,sans-serif" font-size="14" fill="#888888" font-weight="bold" text-anchor="middle" opacity="1.0">火</text>
<rect x="190" y="136" width="65" height="28" fill="#0F2540" rx="0" opacity="0.15" stroke="none" stroke-width="0"/>
<text x="222" y="155" font-family="Noto Sans JP,Hiragino Sans,Meiryo,sans-serif" font-size="14" fill="#888888" font-weight="bold" text-anchor="middle" opacity="1.0">水</text>
<rect x="255" y="136" width="65" height="28" fill="#0F2540" rx="0" opacity="0.15" stroke="none" stroke-width="0"/>
<text x="287" y="155" font-family="Noto Sans JP,Hiragino Sans,Meiryo,sans-serif" font-size="14" fill="#888888" font-weight="bold" text-anchor="middle" opacity="1.0">木</text>
<rect x="320" y="136" width="65" height="28" fill="#0F2540" rx="0" opacity="0.15" stroke="none" stroke-width="0"/>
<text x="352" y="155" font-family="Noto Sans JP,Hiragino Sans,Meiryo,sans-serif" font-size="14" fill="#888888" font-weight="bold" text-anchor="middle" opacity="1.0">金</text>
<rect x="385" y="136" width="65" height="28" fill="#F5A623" rx="0" opacity="0.8" stroke="none" stroke-width="0"/>
<text x="417" y="155" font-family="Noto Sans JP,Hiragino Sans,Meiryo,sans-serif" font-size="14" fill="#F5A623" font-weight="bold" text-anchor="middle" opacity="1.0">土</text>
<rect x="450" y="136" width="65" height="28" fill="#F5A623" rx="0" opacity="0.8" stroke="none" stroke-width="0"/>
<text x="482" y="155" font-family="Noto Sans JP,Hiragino Sans,Meiryo,sans-serif" font-size="14" fill="#F5A623" font-weight="bold" text-anchor="middle" opacity="1.0">日</text>
<rect x="62" y="166" width="61" height="84" fill="#fff" rx="4" opacity="0.12" stroke="none" stroke-width="0"/>
<text x="92" y="186" font-family="Noto Sans JP,Hiragino Sans,Meiryo,sans-serif" font-size="13" fill="#888888" font-weight="bold" text-anchor="middle" opacity="1.0">1</text>
<rect x="127" y="166" width="61" height="84" fill="#fff" rx="4" opacity="0.12" stroke="none" stroke-width="0"/>
<text x="157" y="186" font-family="Noto Sans JP,Hiragino Sans,Meiryo,sans-serif" font-size="13" fill="#888888" font-weight="bold" text-anchor="middle" opacity="1.0">2</text>
<rect x="192" y="166" width="61" height="84" fill="#fff" rx="4" opacity="0.12" stroke="none" stroke-width="0"/>
<text x="222" y="186" font-family="Noto Sans JP,Hiragino Sans,Meiryo,sans-serif" font-size="13" fill="#888888" font-weight="bold" text-anchor="middle" opacity="1.0">3</text>
<rect x="257" y="166" width="61" height="84" fill="#fff" rx="4" opacity="0.12" stroke="none" stroke-width="0"/>
<text x="287" y="186" font-family="Noto Sans JP,Hiragino Sans,Meiryo,sans-serif" font-size="13" fill="#888888" font-weight="bold" text-anchor="middle" opacity="1.0">4</text>
<rect x="322" y="166" width="61" height="84" fill="#fff" rx="4" opacity="0.12" stroke="none" stroke-width="0"/>
<text x="352" y="186" font-family="Noto Sans JP,Hiragino Sans,Meiryo,sans-serif" font-size="13" fill="#888888" font-weight="bold" text-anchor="middle" opacity="1.0">5</text>
<rect x="387" y="166" width="61" height="84" fill="#F5A623" rx="4" opacity="0.15" stroke="none" stroke-width="0"/>
<rect x="387" y="166" width="61" height="84" fill="#F5A623" rx="4" opacity="0" stroke="#F5A623" stroke-width="1.5"/>
<text x="417" y="186" font-family="Noto Sans JP,Hiragino Sans,Meiryo,sans-serif" font-size="13" fill="#F5A623" font-weight="bold" text-anchor="middle" opacity="1.0">6</text>
<text x="417" y="214" font-family="Noto Sans JP,Hiragino Sans,Meiryo,sans-serif" font-size="11" fill="#F5A623" font-weight="bold" text-anchor="middle" opacity="1.0">副業</text>
<text x="417" y="232" font-family="Noto Sans JP,Hiragino Sans,Meiryo,sans-serif" font-size="10" fill="#fff" font-weight="bold" text-anchor="middle" opacity="0.8">OK!</text>
<rect x="452" y="166" width="61" height="84" fill="#F5A623" rx="4" opacity="0.15" stroke="none" stroke-width="0"/>
<rect x="452" y="166" width="61" height="84" fill="#F5A623" rx="4" opacity="0" stroke="#F5A623" stroke-width="1.5"/>
<text x="482" y="186" font-family="Noto Sans JP,Hiragino Sans,Meiryo,sans-serif" font-size="13" fill="#F5A623" font-weight="bold" text-anchor="middle" opacity="1.0">7</text>
<text x="482" y="214" font-family="Noto Sans JP,Hiragino Sans,Meiryo,sans-serif" font-size="11" fill="#F5A623" font-weight="bold" text-anchor="middle" opacity="1.0">副業</text>
<text x="482" y="232" font-family="Noto Sans JP,Hiragino Sans,Meiryo,sans-serif" font-size="10" fill="#fff" font-weight="bold" text-anchor="middle" opacity="0.8">OK!</text>
<rect x="62" y="256" width="61" height="84" fill="#fff" rx="4" opacity="0.12" stroke="none" stroke-width="0"/>
<text x="92" y="276" font-family="Noto Sans JP,Hiragino Sans,Meiryo,sans-serif" font-size="13" fill="#888888" font-weight="bold" text-anchor="middle" opacity="1.0">8</text>
<rect x="127" y="256" width="61" height="84" fill="#fff" rx="4" opacity="0.12" stroke="none" stroke-width="0"/>
<text x="157" y="276" font-family="Noto Sans JP,Hiragino Sans,Meiryo,sans-serif" font-size="13" fill="#888888" font-weight="bold" text-anchor="middle" opacity="1.0">9</text>
<rect x="192" y="256" width="61" height="84" fill="#fff" rx="4" opacity="0.12" stroke="none" stroke-width="0"/>
<text x="222" y="276" font-family="Noto Sans JP,Hiragino Sans,Meiryo,sans-serif" font-size="13" fill="#888888" font-weight="bold" text-anchor="middle" opacity="1.0">10</text>
<rect x="257" y="256" width="61" height="84" fill="#fff" rx="4" opacity="0.12" stroke="none" stroke-width="0"/>
<text x="287" y="276" font-family="Noto Sans JP,Hiragino Sans,Meiryo,sans-serif" font-size="13" fill="#888888" font-weight="bold" text-anchor="middle" opacity="1.0">11</text>
<rect x="322" y="256" width="61" height="84" fill="#fff" rx="4" opacity="0.12" stroke="none" stroke-width="0"/>
<text x="352" y="276" font-family="Noto Sans JP,Hiragino Sans,Meiryo,sans-serif" font-size="13" fill="#888888" font-weight="bold" text-anchor="middle" opacity="1.0">12</text>
<rect x="387" y="256" width="61" height="84" fill="#F5A623" rx="4" opacity="0.15" stroke="none" stroke-width="0"/>
<rect x="387" y="256" width="61" height="84" fill="#F5A623" rx="4" opacity="0" stroke="#F5A623" stroke-width="1.5"/>
<text x="417" y="276" font-family="Noto Sans JP,Hiragino Sans,Meiryo,sans-serif" font-size="13" fill="#F5A623" font-weight="bold" text-anchor="middle" opacity="1.0">13</text>
<text x="417" y="304" font-family="Noto Sans JP,Hiragino Sans,Meiryo,sans-serif" font-size="11" fill="#F5A623" font-weight="bold" text-anchor="middle" opacity="1.0">副業</text>
<text x="417" y="322" font-family="Noto Sans JP,Hiragino Sans,Meiryo,sans-serif" font-size="10" fill="#fff" font-weight="bold" text-anchor="middle" opacity="0.8">OK!</text>
<rect x="452" y="256" width="61" height="84" fill="#F5A623" rx="4" opacity="0.15" stroke="none" stroke-width="0"/>
<rect x="452" y="256" width="61" height="84" fill="#F5A623" rx="4" opacity="0" stroke="#F5A623" stroke-width="1.5"/>
<text x="482" y="276" font-family="Noto Sans JP,Hiragino Sans,Meiryo,sans-serif" font-size="13" fill="#F5A623" font-weight="bold" text-anchor="middle" opacity="1.0">14</text>
<text x="482" y="304" font-family="Noto Sans JP,Hiragino Sans,Meiryo,sans-serif" font-size="11" fill="#F5A623" font-weight="bold" text-anchor="middle" opacity="1.0">副業</text>
<text x="482" y="322" font-family="Noto Sans JP,Hiragino Sans,Meiryo,sans-serif" font-size="10" fill="#fff" font-weight="bold" text-anchor="middle" opacity="0.8">OK!</text>
<rect x="62" y="346" width="61" height="84" fill="#fff" rx="4" opacity="0.12" stroke="none" stroke-width="0"/>
<text x="92" y="366" font-family="Noto Sans JP,Hiragino Sans,Meiryo,sans-serif" font-size="13" fill="#888888" font-weight="bold" text-anchor="middle" opacity="1.0">15</text>
<rect x="127" y="346" width="61" height="84" fill="#fff" rx="4" opacity="0.12" stroke="none" stroke-width="0"/>
<text x="157" y="366" font-family="Noto Sans JP,Hiragino Sans,Meiryo,sans-serif" font-size="13" fill="#888888" font-weight="bold" text-anchor="middle" opacity="1.0">16</text>
<rect x="192" y="346" width="61" height="84" fill="#fff" rx="4" opacity="0.12" stroke="none" stroke-width="0"/>
<text x="222" y="366" font-family="Noto Sans JP,Hiragino Sans,Meiryo,sans-serif" font-size="13" fill="#888888" font-weight="bold" text-anchor="middle" opacity="1.0">17</text>
<rect x="257" y="346" width="61" height="84" fill="#fff" rx="4" opacity="0.12" stroke="none" stroke-width="0"/>
<text x="287" y="366" font-family="Noto Sans JP,Hiragino Sans,Meiryo,sans-serif" font-size="13" fill="#888888" font-weight="bold" text-anchor="middle" opacity="1.0">18</text>
<rect x="322" y="346" width="61" height="84" fill="#fff" rx="4" opacity="0.12" stroke="none" stroke-width="0"/>
<text x="352" y="366" font-family="Noto Sans JP,Hiragino Sans,Meiryo,sans-serif" font-size="13" fill="#888888" font-weight="bold" text-anchor="middle" opacity="1.0">19</text>
<rect x="387" y="346" width="61" height="84" fill="#F5A623" rx="4" opacity="0.15" stroke="none" stroke-width="0"/>
<rect x="387" y="346" width="61" height="84" fill="#F5A623" rx="4" opacity="0" stroke="#F5A623" stroke-width="1.5"/>
<text x="417" y="366" font-family="Noto Sans JP,Hiragino Sans,Meiryo,sans-serif" font-size="13" fill="#F5A623" font-weight="bold" text-anchor="middle" opacity="1.0">20</text>
<text x="417" y="394" font-family="Noto Sans JP,Hiragino Sans,Meiryo,sans-serif" font-size="11" fill="#F5A623" font-weight="bold" text-anchor="middle" opacity="1.0">副業</text>
<text x="417" y="412" font-family="Noto Sans JP,Hiragino Sans,Meiryo,sans-serif" font-size="10" fill="#fff" font-weight="bold" text-anchor="middle" opacity="0.8">OK!</text>
<rect x="452" y="346" width="61" height="84" fill="#F5A623" rx="4" opacity="0.15" stroke="none" stroke-width="0"/>
<rect x="452" y="346" width="61" height="84" fill="#F5A623" rx="4" opacity="0" stroke="#F5A623" stroke-width="1.5"/>
<text x="482" y="366" font-family="Noto Sans JP,Hiragino Sans,Meiryo,sans-serif" font-size="13" fill="#F5A623" font-weight="bold" text-anchor="middle" opacity="1.0">21</text>
<text x="482" y="394" font-family="Noto Sans JP,Hiragino Sans,Meiryo,sans-serif" font-size="11" fill="#F5A623" font-weight="bold" text-anchor="middle" opacity="1.0">副業</text>
<text x="482" y="412" font-family="Noto Sans JP,Hiragino Sans,Meiryo,sans-serif" font-size="10" fill="#fff" font-weight="bold" text-anchor="middle" opacity="0.8">OK!</text>
<rect x="62" y="436" width="61" height="84" fill="#fff" rx="4" opacity="0.12" stroke="none" stroke-width="0"/>
<text x="92" y="456" font-family="Noto Sans JP,Hiragino Sans,Meiryo,sans-serif" font-size="13" fill="#888888" font-weight="bold" text-anchor="middle" opacity="1.0">22</text>
<rect x="127" y="436" width="61" height="84" fill="#fff" rx="4" opacity="0.12" stroke="none" stroke-width="0"/>
<text x="157" y="456" font-family="Noto Sans JP,Hiragino Sans,Meiryo,sans-serif" font-size="13" fill="#888888" font-weight="bold" text-anchor="middle" opacity="1.0">23</text>
<rect x="192" y="436" width="61" height="84" fill="#fff" rx="4" opacity="0.12" stroke="none" stroke-width="0"/>
<text x="222" y="456" font-family="Noto Sans JP,Hiragino Sans,Meiryo,sans-serif" font-size="13" fill="#888888" font-weight="bold" text-anchor="middle" opacity="1.0">24</text>
<rect x="257" y="436" width="61" height="84" fill="#fff" rx="4" opacity="0.12" stroke="none" stroke-width="0"/>
<text x="287" y="456" font-family="Noto Sans JP,Hiragino Sans,Meiryo,sans-serif" font-size="13" fill="#888888" font-weight="bold" text-anchor="middle" opacity="1.0">25</text>
<rect x="322" y="436" width="61" height="84" fill="#fff" rx="4" opacity="0.12" stroke="none" stroke-width="0"/>
<text x="352" y="456" font-family="Noto Sans JP,Hiragino Sans,Meiryo,sans-serif" font-size="13" fill="#888888" font-weight="bold" text-anchor="middle" opacity="1.0">26</text>
<rect x="387" y="436" width="61" height="84" fill="#F5A623" rx="4" opacity="0.15" stroke="none" stroke-width="0"/>
<rect x="387" y="436" width="61" height="84" fill="#F5A623" rx="4" opacity="0" stroke="#F5A623" stroke-width="1.5"/>
<text x="417" y="456" font-family="Noto Sans JP,Hiragino Sans,Meiryo,sans-serif" font-size="13" fill="#F5A623" font-weight="bold" text-anchor="middle" opacity="1.0">27</text>
<text x="417" y="484" font-family="Noto Sans JP,Hiragino Sans,Meiryo,sans-serif" font-size="11" fill="#F5A623" font-weight="bold" text-anchor="middle" opacity="1.0">副業</text>
<text x="417" y="502" font-family="Noto Sans JP,Hiragino Sans,Meiryo,sans-serif" font-size="10" fill="#fff" font-weight="bold" text-anchor="middle" opacity="0.8">OK!</text>
<rect x="452" y="436" width="61" height="84" fill="#F5A623" rx="4" opacity="0.15" stroke="none" stroke-width="0"/>
<rect x="452" y="436" width="61" height="84" fill="#F5A623" rx="4" opacity="0" stroke="#F5A623" stroke-width="1.5"/>
<text x="482" y="456" font-family="Noto Sans JP,Hiragino Sans,Meiryo,sans-serif" font-size="13" fill="#F5A623" font-weight="bold" text-anchor="middle" opacity="1.0">28</text>
<text x="482" y="484" font-family="Noto Sans JP,Hiragino Sans,Meiryo,sans-serif" font-size="11" fill="#F5A623" font-weight="bold" text-anchor="middle" opacity="1.0">副業</text>
<text x="482" y="502" font-family="Noto Sans JP,Hiragino Sans,Meiryo,sans-serif" font-size="10" fill="#fff" font-weight="bold" text-anchor="middle" opacity="0.8">OK!</text>
<rect x="385" y="80" width="130" height="544" fill="#F5A623" rx="0" opacity="0.04" stroke="none" stroke-width="0"/>
<rect x="570" y="60" width="6" height="510" fill="#F5A623" rx="3" opacity="1.0" stroke="none" stroke-width="0"/>
<text x="600" y="140" font-family="Noto Sans JP,Hiragino Sans,Meiryo,sans-serif" font-size="58" fill="#F5A623" font-weight="900" text-anchor="start" opacity="1.0">土日だけでOK!</text>
<text x="600" y="210" font-family="Noto Sans JP,Hiragino Sans,Meiryo,sans-serif" font-size="40" fill="#fff" font-weight="900" text-anchor="start" opacity="1.0">メガベンチャー</text>
<text x="600" y="265" font-family="Noto Sans JP,Hiragino Sans,Meiryo,sans-serif" font-size="40" fill="#fff" font-weight="900" text-anchor="start" opacity="1.0">エンジニアの</text>
<text x="600" y="320" font-family="Noto Sans JP,Hiragino Sans,Meiryo,sans-serif" font-size="40" fill="#fff" font-weight="900" text-anchor="start" opacity="1.0">マイクロ副業</text>
<text x="600" y="376" font-family="Noto Sans JP,Hiragino Sans,Meiryo,sans-serif" font-size="19" fill="#D8E6F2" font-weight="400" text-anchor="start" opacity="0.8">週1日・タスク単位・フレキシブル稼働</text>
<rect x="600" y="410" width="165" height="42" fill="#27AE60" rx="21" opacity="0.15" stroke="none" stroke-width="0"/>
<rect x="600" y="410" width="165" height="42" fill="#27AE60" rx="21" opacity="0" stroke="#27AE60" stroke-width="1.5"/>
<text x="682" y="436" font-family="Noto Sans JP,Hiragino Sans,Meiryo,sans-serif" font-size="14" fill="#fff" font-weight="bold" text-anchor="middle" opacity="1.0">本業継続OK</text>
<rect x="785" y="410" width="165" height="42" fill="#2E75B6" rx="21" opacity="0.15" stroke="none" stroke-width="0"/>
<rect x="785" y="410" width="165" height="42" fill="#2E75B6" rx="21" opacity="0" stroke="#2E75B6" stroke-width="1.5"/>
<text x="867" y="436" font-family="Noto Sans JP,Hiragino Sans,Meiryo,sans-serif" font-size="14" fill="#fff" font-weight="bold" text-anchor="middle" opacity="1.0">最新AI案件</text>
<rect x="970" y="410" width="165" height="42" fill="#F5A623" rx="21" opacity="0.15" stroke="none" stroke-width="0"/>
<rect x="970" y="410" width="165" height="42" fill="#F5A623" rx="21" opacity="0" stroke="#F5A623" stroke-width="1.5"/>
<text x="1052" y="436" font-family="Noto Sans JP,Hiragino Sans,Meiryo,sans-serif" font-size="14" fill="#fff" font-weight="bold" text-anchor="middle" opacity="1.0">高時給単価</text>
<text x="600" y="490" font-family="Noto Sans JP,Hiragino Sans,Meiryo,sans-serif" font-size="14" fill="#D8E6F2" font-weight="400" text-anchor="start" opacity="0.6">副業収入イメージ（月）</text>
<rect x="600" y="520" width="120" height="40" fill="#2E75B6" rx="4" opacity="0.8" stroke="none" stroke-width="0"/>
<text x="660" y="575" font-family="Noto Sans JP,Hiragino Sans,Meiryo,sans-serif" font-size="12" fill="#D8E6F2" font-weight="400" text-anchor="middle" opacity="0.7">週1</text>
<rect x="780" y="480" width="120" height="80" fill="#27AE60" rx="4" opacity="0.8" stroke="none" stroke-width="0"/>
<text x="840" y="575" font-family="Noto Sans JP,Hiragino Sans,Meiryo,sans-serif" font-size="12" fill="#D8E6F2" font-weight="400" text-anchor="middle" opacity="0.7">週2</text>
<rect x="960" y="430" width="120" height="130" fill="#F5A623" rx="4" opacity="0.8" stroke="none" stroke-width="0"/>
<text x="1020" y="575" font-family="Noto Sans JP,Hiragino Sans,Meiryo,sans-serif" font-size="12" fill="#D8E6F2" font-weight="400" text-anchor="middle" opacity="0.7">週3</text>
<rect x="600" y="590" width="180" height="0" fill="#F5A623" rx="26" opacity="1.0" stroke="none" stroke-width="0"/>
</svg>