<svg xmlns="http://www.w3.org/2000/svg" viewBox="0 0 1200 630" width="1200" height="630"><rect width="1200" height="630" fill="#0c1a2e"/><text x="600" y="55" font-family="sans-serif" font-size="30" fill="#e2e8f0" text-anchor="middle" font-weight="bold">依頼の流れ</text><rect x="80" y="130" width="200" height="320" rx="20" fill="#1d4ed8"/><text x="180" y="210" font-family="sans-serif" font-size="64" fill="#fff" text-anchor="middle" font-weight="normal">📝</text><text x="180" y="300" font-family="sans-serif" font-size="24" fill="#fff" text-anchor="middle" font-weight="bold">①</text><text x="180" y="340" font-family="sans-serif" font-size="20" fill="#e2e8f0" text-anchor="middle" font-weight="bold">登録</text><line x1="290" y1="290" x2="420" y2="290" stroke="#38bdf8" stroke-width="4"/><polygon points="420,282 436,290 420,298" fill="#38bdf8"/><rect x="360" y="130" width="200" height="320" rx="20" fill="#0891b2"/><text x="460" y="210" font-family="sans-serif" font-size="64" fill="#fff" text-anchor="middle" font-weight="normal">📋</text><text x="460" y="300" font-family="sans-serif" font-size="24" fill="#fff" text-anchor="middle" font-weight="bold">②</text><text x="460" y="340" font-family="sans-serif" font-size="20" fill="#e2e8f0" text-anchor="middle" font-weight="bold">案件投稿</text><line x1="570" y1="290" x2="700" y2="290" stroke="#38bdf8" stroke-width="4"/><polygon points="700,282 716,290 700,298" fill="#38bdf8"/><rect x="640" y="130" width="200" height="320" rx="20" fill="#7c3aed"/><text x="740" y="210" font-family="sans-serif" font-size="64" fill="#fff" text-anchor="middle" font-weight="normal">🤝</text><text x="740" y="300" font-family="sans-serif" font-size="24" fill="#fff" text-anchor="middle" font-weight="bold">③</text><text x="740" y="340" font-family="sans-serif" font-size="20" fill="#e2e8f0" text-anchor="middle" font-weight="bold">マッチング</text><line x1="850" y1="290" x2="980" y2="290" stroke="#38bdf8" stroke-width="4"/><polygon points="980,282 996,290 980,298" fill="#38bdf8"/><rect x="920" y="130" width="200" height="320" rx="20" fill="#059669"/><text x="1020" y="210" font-family="sans-serif" font-size="64" fill="#fff" text-anchor="middle" font-weight="normal">🚀</text><text x="1020" y="300" font-family="sans-serif" font-size="24" fill="#fff" text-anchor="middle" font-weight="bold">④</text><text x="1020" y="340" font-family="sans-serif" font-size="20" fill="#e2e8f0" text-anchor="middle" font-weight="bold">稼働・納品</text><text x="600" y="540" font-family="sans-serif" font-size="22" fill="#94a3b8" text-anchor="middle" font-weight="normal">最短即日からエンジニアが稼働開始</text></svg>