<svg xmlns="http://www.w3.org/2000/svg" viewBox="0 0 1200 630" width="1200" height="630"><rect width="1200" height="630" fill="#0f172a"/><text x="600" y="50" font-family="sans-serif" font-size="28" fill="#e2e8f0" text-anchor="middle" font-weight="bold">エンジニア採用市場の現実 2026</text><rect x="60" y="100" width="480" height="440" rx="20" fill="#7f1d1d"/><text x="300" y="185" font-family="sans-serif" font-size="80" fill="#fff" text-anchor="middle" font-weight="normal">🏢</text><text x="300" y="280" font-family="sans-serif" font-size="24" fill="#fca5a5" text-anchor="middle" font-weight="bold">企業の需要</text><rect x="90" y="310" width="58" height="58" rx="10" fill="#991b1b"/><text x="119" y="348" font-family="sans-serif" font-size="28" fill="#fff" text-anchor="middle" font-weight="normal">🏭</text><rect x="158" y="310" width="58" height="58" rx="10" fill="#991b1b"/><text x="187" y="348" font-family="sans-serif" font-size="28" fill="#fff" text-anchor="middle" font-weight="normal">🏭</text><rect x="226" y="310" width="58" height="58" rx="10" fill="#991b1b"/><text x="255" y="348" font-family="sans-serif" font-size="28" fill="#fff" text-anchor="middle" font-weight="normal">🏭</text><rect x="294" y="310" width="58" height="58" rx="10" fill="#991b1b"/><text x="323" y="348" font-family="sans-serif" font-size="28" fill="#fff" text-anchor="middle" font-weight="normal">🏭</text><rect x="362" y="310" width="58" height="58" rx="10" fill="#991b1b"/><text x="391" y="348" font-family="sans-serif" font-size="28" fill="#fff" text-anchor="middle" font-weight="normal">🏭</text><rect x="430" y="310" width="58" height="58" rx="10" fill="#991b1b"/><text x="459" y="348" font-family="sans-serif" font-size="28" fill="#fff" text-anchor="middle" font-weight="normal">🏭</text><text x="300" y="420" font-family="sans-serif" font-size="20" fill="#fecaca" text-anchor="middle" font-weight="bold">求人倍率 6.70倍</text><text x="300" y="455" font-family="sans-serif" font-size="16" fill="#fca5a5" text-anchor="middle" font-weight="normal">採用競争は激化する一方</text><rect x="660" y="100" width="480" height="440" rx="20" fill="#064e3b"/><text x="900" y="185" font-family="sans-serif" font-size="80" fill="#fff" text-anchor="middle" font-weight="normal">👤</text><text x="900" y="280" font-family="sans-serif" font-size="24" fill="#6ee7b7" text-anchor="middle" font-weight="bold">エンジニアの供給</text><rect x="720" y="310" width="360" height="60" rx="10" fill="#065f46"/><text x="900" y="348" font-family="sans-serif" font-size="20" fill="#a7f3d0" text-anchor="middle" font-weight="bold">圧倒的に不足</text><text x="900" y="420" font-family="sans-serif" font-size="20" fill="#6ee7b7" text-anchor="middle" font-weight="bold">スポット外注で</text><text x="900" y="455" font-family="sans-serif" font-size="16" fill="#a7f3d0" text-anchor="middle" font-weight="normal">採用なしに開発力を確保</text></svg>