<svg xmlns="http://www.w3.org/2000/svg" viewBox="0 0 1200 630" width="1200" height="630"><rect width="1200" height="630" fill="#0a1628"/><text x="600" y="50" font-family="sans-serif" font-size="26" fill="#e2e8f0" text-anchor="middle" font-weight="bold">週末2回でPoC完成 イメージ</text><rect x="80" y="100" width="300" height="420" rx="20" fill="#1d4ed8"/><text x="230" y="165" font-family="sans-serif" font-size="18" fill="#bfdbfe" text-anchor="middle" font-weight="bold">Week 1</text><text x="230" y="195" font-family="sans-serif" font-size="18" fill="#bfdbfe" text-anchor="middle" font-weight="bold">土日</text><text x="230" y="280" font-family="sans-serif" font-size="80" fill="#fff" text-anchor="middle" font-weight="normal">📋</text><text x="230" y="370" font-family="sans-serif" font-size="18" fill="#e2e8f0" text-anchor="middle" font-weight="normal">要件整理＋</text><text x="230" y="400" font-family="sans-serif" font-size="18" fill="#e2e8f0" text-anchor="middle" font-weight="normal">環境構築</text><polygon points="390,310 420,295 420,325" fill="#38bdf8"/><rect x="460" y="100" width="300" height="420" rx="20" fill="#7c3aed"/><text x="610" y="165" font-family="sans-serif" font-size="18" fill="#bfdbfe" text-anchor="middle" font-weight="bold">Week 2</text><text x="610" y="195" font-family="sans-serif" font-size="18" fill="#bfdbfe" text-anchor="middle" font-weight="bold">土日</text><text x="610" y="280" font-family="sans-serif" font-size="80" fill="#fff" text-anchor="middle" font-weight="normal">⚙️</text><text x="610" y="370" font-family="sans-serif" font-size="18" fill="#e2e8f0" text-anchor="middle" font-weight="normal">実装＋</text><text x="610" y="400" font-family="sans-serif" font-size="18" fill="#e2e8f0" text-anchor="middle" font-weight="normal">テスト</text><polygon points="770,310 800,295 800,325" fill="#38bdf8"/><rect x="840" y="100" width="300" height="420" rx="20" fill="#059669"/><text x="990" y="165" font-family="sans-serif" font-size="18" fill="#bfdbfe" text-anchor="middle" font-weight="bold">完成</text><text x="990" y="280" font-family="sans-serif" font-size="80" fill="#fff" text-anchor="middle" font-weight="normal">🚀</text><text x="990" y="370" font-family="sans-serif" font-size="18" fill="#e2e8f0" text-anchor="middle" font-weight="normal">社内AIツール</text><text x="990" y="400" font-family="sans-serif" font-size="18" fill="#e2e8f0" text-anchor="middle" font-weight="normal">稼働開始</text></svg>