<svg xmlns="http://www.w3.org/2000/svg" viewBox="0 0 1200 630" width="1200" height="630"><rect width="1200" height="630" fill="#0f172a"/><text x="600" y="50" font-family="sans-serif" font-size="26" fill="#e2e8f0" text-anchor="middle" font-weight="bold">中小企業がエンジニア採用で直面する壁</text><rect x="40" y="100" width="1120" height="380" rx="20" fill="#1e293b"/><rect x="80" y="130" width="240" height="310" rx="16" fill="#dc2626"/><text x="200" y="220" font-family="sans-serif" font-size="60" fill="#fff" text-anchor="middle" font-weight="normal">💰</text><text x="200" y="295" font-family="sans-serif" font-size="18" fill="#fff" text-anchor="middle" font-weight="bold">採用コスト</text><text x="200" y="330" font-family="sans-serif" font-size="13" fill="#e2e8f0" text-anchor="middle" font-weight="normal">1人あたり約200万円</text><rect x="360" y="130" width="240" height="310" rx="16" fill="#b45309"/><text x="480" y="220" font-family="sans-serif" font-size="60" fill="#fff" text-anchor="middle" font-weight="normal">⏳</text><text x="480" y="295" font-family="sans-serif" font-size="18" fill="#fff" text-anchor="middle" font-weight="bold">採用期間</text><text x="480" y="330" font-family="sans-serif" font-size="13" fill="#e2e8f0" text-anchor="middle" font-weight="normal">平均3〜6ヶ月</text><rect x="640" y="130" width="240" height="310" rx="16" fill="#7c3aed"/><text x="760" y="220" font-family="sans-serif" font-size="60" fill="#fff" text-anchor="middle" font-weight="normal">🏆</text><text x="760" y="295" font-family="sans-serif" font-size="18" fill="#fff" text-anchor="middle" font-weight="bold">競合他社</text><text x="760" y="330" font-family="sans-serif" font-size="13" fill="#e2e8f0" text-anchor="middle" font-weight="normal">大手・メガベンチャーと競争</text><rect x="860" y="130" width="240" height="310" rx="16" fill="#0891b2"/><text x="980" y="220" font-family="sans-serif" font-size="60" fill="#fff" text-anchor="middle" font-weight="normal">📉</text><text x="980" y="295" font-family="sans-serif" font-size="18" fill="#fff" text-anchor="middle" font-weight="bold">求人倍率</text><text x="980" y="330" font-family="sans-serif" font-size="13" fill="#e2e8f0" text-anchor="middle" font-weight="normal">6.70倍の超売り手市場</text><rect x="40" y="500" width="1120" height="90" rx="16" fill="#064e3b"/><text x="600" y="555" font-family="sans-serif" font-size="22" fill="#6ee7b7" text-anchor="middle" font-weight="bold">解決策：スポット外注で採用ゼロ・即日稼働を実現</text></svg>