<svg xmlns="http://www.w3.org/2000/svg" viewBox="0 0 1200 630" width="1200" height="630"><rect width="1200" height="630" fill="#0f1f3d"/><text x="600" y="50" font-family="sans-serif" font-size="28" fill="#e2e8f0" text-anchor="middle" font-weight="bold">スポット外注 vs 採用 vs 長期外注</text><rect x="20" y="80" width="290" height="60" rx="8" fill="#1e3a5f"/><text x="165" y="117" font-family="sans-serif" font-size="18" fill="#e2e8f0" text-anchor="middle" font-weight="bold">比較項目</text><rect x="320" y="80" width="240" height="60" rx="8" fill="#7f1d1d"/><text x="440" y="117" font-family="sans-serif" font-size="18" fill="#e2e8f0" text-anchor="middle" font-weight="bold">採用</text><rect x="570" y="80" width="240" height="60" rx="8" fill="#92400e"/><text x="690" y="117" font-family="sans-serif" font-size="18" fill="#e2e8f0" text-anchor="middle" font-weight="bold">長期外注</text><rect x="820" y="80" width="360" height="60" rx="8" fill="#064e3b"/><text x="1000" y="117" font-family="sans-serif" font-size="18" fill="#e2e8f0" text-anchor="middle" font-weight="bold">スポット外注</text><rect x="20" y="155" width="1160" height="90" rx="6" fill="#1e293b"/><text x="165" y="205" font-family="sans-serif" font-size="16" fill="#e2e8f0" text-anchor="middle" font-weight="normal">費用</text><text x="440" y="205" font-family="sans-serif" font-size="16" fill="#fca5a5" text-anchor="middle" font-weight="normal">高額固定費</text><text x="690" y="205" font-family="sans-serif" font-size="16" fill="#fde68a" text-anchor="middle" font-weight="normal">月額固定</text><text x="1000" y="205" font-family="sans-serif" font-size="16" fill="#6ee7b7" text-anchor="middle" font-weight="normal">タスク単位</text><rect x="20" y="255" width="1160" height="90" rx="6" fill="#0f172a"/><text x="165" y="305" font-family="sans-serif" font-size="16" fill="#e2e8f0" text-anchor="middle" font-weight="normal">スピード</text><text x="440" y="305" font-family="sans-serif" font-size="16" fill="#fca5a5" text-anchor="middle" font-weight="normal">3〜6ヶ月</text><text x="690" y="305" font-family="sans-serif" font-size="16" fill="#fde68a" text-anchor="middle" font-weight="normal">1〜2ヶ月</text><text x="1000" y="305" font-family="sans-serif" font-size="16" fill="#6ee7b7" text-anchor="middle" font-weight="normal">即日〜数日</text><rect x="20" y="355" width="1160" height="90" rx="6" fill="#1e293b"/><text x="165" y="405" font-family="sans-serif" font-size="16" fill="#e2e8f0" text-anchor="middle" font-weight="normal">柔軟性</text><text x="440" y="405" font-family="sans-serif" font-size="16" fill="#fca5a5" text-anchor="middle" font-weight="normal">難しい</text><text x="690" y="405" font-family="sans-serif" font-size="16" fill="#fde68a" text-anchor="middle" font-weight="normal">変更困難</text><text x="1000" y="405" font-family="sans-serif" font-size="16" fill="#6ee7b7" text-anchor="middle" font-weight="normal">高い</text><rect x="20" y="455" width="1160" height="90" rx="6" fill="#0f172a"/><text x="165" y="505" font-family="sans-serif" font-size="16" fill="#e2e8f0" text-anchor="middle" font-weight="normal">リスク</text><text x="440" y="505" font-family="sans-serif" font-size="16" fill="#fca5a5" text-anchor="middle" font-weight="normal">採用失敗リスク</text><text x="690" y="505" font-family="sans-serif" font-size="16" fill="#fde68a" text-anchor="middle" font-weight="normal">解約難</text><text x="1000" y="505" font-family="sans-serif" font-size="16" fill="#6ee7b7" text-anchor="middle" font-weight="normal">低リスク</text></svg>