<svg xmlns="http://www.w3.org/2000/svg" viewBox="0 0 1200 440" width="1200" height="440">
  <defs>
  <linearGradient id="bgB3" x1="0%" y1="0%" x2="100%" y2="100%">
    <stop offset="0%" stop-color="#0a1628"/>
    <stop offset="100%" stop-color="#1B3A5C"/>
  </linearGradient>
  </defs>
<rect width="1200" height="440" fill="url(#bgB3)"/>
<line x1="0" y1="0" x2="0" y2="440" stroke="#2E75B6" stroke-width="0.5" opacity="0.07"/>
<line x1="80" y1="0" x2="80" y2="440" stroke="#2E75B6" stroke-width="0.5" opacity="0.07"/>
<line x1="160" y1="0" x2="160" y2="440" stroke="#2E75B6" stroke-width="0.5" opacity="0.07"/>
<line x1="240" y1="0" x2="240" y2="440" stroke="#2E75B6" stroke-width="0.5" opacity="0.07"/>
<line x1="320" y1="0" x2="320" y2="440" stroke="#2E75B6" stroke-width="0.5" opacity="0.07"/>
<line x1="400" y1="0" x2="400" y2="440" stroke="#2E75B6" stroke-width="0.5" opacity="0.07"/>
<line x1="480" y1="0" x2="480" y2="440" stroke="#2E75B6" stroke-width="0.5" opacity="0.07"/>
<line x1="560" y1="0" x2="560" y2="440" stroke="#2E75B6" stroke-width="0.5" opacity="0.07"/>
<line x1="640" y1="0" x2="640" y2="440" stroke="#2E75B6" stroke-width="0.5" opacity="0.07"/>
<line x1="720" y1="0" x2="720" y2="440" stroke="#2E75B6" stroke-width="0.5" opacity="0.07"/>
<line x1="800" y1="0" x2="800" y2="440" stroke="#2E75B6" stroke-width="0.5" opacity="0.07"/>
<line x1="880" y1="0" x2="880" y2="440" stroke="#2E75B6" stroke-width="0.5" opacity="0.07"/>
<line x1="960" y1="0" x2="960" y2="440" stroke="#2E75B6" stroke-width="0.5" opacity="0.07"/>
<line x1="1040" y1="0" x2="1040" y2="440" stroke="#2E75B6" stroke-width="0.5" opacity="0.07"/>
<line x1="1120" y1="0" x2="1120" y2="440" stroke="#2E75B6" stroke-width="0.5" opacity="0.07"/>
<line x1="1200" y1="0" x2="1200" y2="440" stroke="#2E75B6" stroke-width="0.5" opacity="0.07"/>
<text x="600" y="52" font-family="Noto Sans JP,Hiragino Sans,Meiryo,sans-serif" font-size="28" fill="#fff" font-weight="900" text-anchor="middle" opacity="1.0">スポット発注でAI開発を進めるフロー</text>
<rect x="0" y="0" width="1200" height="6" fill="#F5A623" rx="0" opacity="1.0" stroke="none" stroke-width="0"/>
<rect x="100" y="90" width="180" height="260" fill="#fff" rx="14" opacity="0.07" stroke="none" stroke-width="0"/>
<rect x="100" y="90" width="180" height="260" fill="#fff" rx="14" opacity="0" stroke="#F5A623" stroke-width="1.5"/>
<rect x="100" y="90" width="180" height="8" fill="#F5A623" rx="0" opacity="1.0" stroke="none" stroke-width="0"/>
<circle cx="190" cy="128" r="22" fill="#F5A623" opacity="0.2" stroke="none" stroke-width="0"/>
<circle cx="190" cy="128" r="22" fill="#F5A623" opacity="0" stroke="#F5A623" stroke-width="1.5"/>
<text x="190" y="135" font-family="Noto Sans JP,Hiragino Sans,Meiryo,sans-serif" font-size="18" fill="#F5A623" font-weight="900" text-anchor="middle" opacity="1.0">1</text>
<text x="190" y="200" font-family="Noto Sans JP,Hiragino Sans,Meiryo,sans-serif" font-size="38" fill="#fff" font-weight="normal" text-anchor="middle" opacity="0.85">📝</text>
<text x="190" y="248" font-family="Noto Sans JP,Hiragino Sans,Meiryo,sans-serif" font-size="18" fill="#fff" font-weight="bold" text-anchor="middle" opacity="1.0">依頼登録</text>
<text x="190" y="276" font-family="Noto Sans JP,Hiragino Sans,Meiryo,sans-serif" font-size="12" fill="#D8E6F2" font-weight="400" text-anchor="middle" opacity="0.75">やりたいことを</text>
<text x="190" y="296" font-family="Noto Sans JP,Hiragino Sans,Meiryo,sans-serif" font-size="12" fill="#D8E6F2" font-weight="400" text-anchor="middle" opacity="0.75">登録するだけ</text>
<line x1="290" y1="220" x2="308" y2="220" stroke="#888888" stroke-width="2" opacity="0.5"/>
<polygon points="308,220 294,213 294,227" fill="#888888" opacity="0.5"/>
<rect x="300" y="90" width="180" height="260" fill="#fff" rx="14" opacity="0.07" stroke="none" stroke-width="0"/>
<rect x="300" y="90" width="180" height="260" fill="#fff" rx="14" opacity="0" stroke="#2E75B6" stroke-width="1.5"/>
<rect x="300" y="90" width="180" height="8" fill="#2E75B6" rx="0" opacity="1.0" stroke="none" stroke-width="0"/>
<circle cx="390" cy="128" r="22" fill="#2E75B6" opacity="0.2" stroke="none" stroke-width="0"/>
<circle cx="390" cy="128" r="22" fill="#2E75B6" opacity="0" stroke="#2E75B6" stroke-width="1.5"/>
<text x="390" y="135" font-family="Noto Sans JP,Hiragino Sans,Meiryo,sans-serif" font-size="18" fill="#2E75B6" font-weight="900" text-anchor="middle" opacity="1.0">2</text>
<text x="390" y="200" font-family="Noto Sans JP,Hiragino Sans,Meiryo,sans-serif" font-size="38" fill="#fff" font-weight="normal" text-anchor="middle" opacity="0.85">🤝</text>
<text x="390" y="248" font-family="Noto Sans JP,Hiragino Sans,Meiryo,sans-serif" font-size="18" fill="#fff" font-weight="bold" text-anchor="middle" opacity="1.0">マッチング</text>
<text x="390" y="276" font-family="Noto Sans JP,Hiragino Sans,Meiryo,sans-serif" font-size="12" fill="#D8E6F2" font-weight="400" text-anchor="middle" opacity="0.75">最短翌日に</text>
<text x="390" y="296" font-family="Noto Sans JP,Hiragino Sans,Meiryo,sans-serif" font-size="12" fill="#D8E6F2" font-weight="400" text-anchor="middle" opacity="0.75">AIエンジニア確保</text>
<line x1="490" y1="220" x2="508" y2="220" stroke="#888888" stroke-width="2" opacity="0.5"/>
<polygon points="508,220 494,213 494,227" fill="#888888" opacity="0.5"/>
<rect x="500" y="90" width="180" height="260" fill="#fff" rx="14" opacity="0.07" stroke="none" stroke-width="0"/>
<rect x="500" y="90" width="180" height="260" fill="#fff" rx="14" opacity="0" stroke="#27AE60" stroke-width="1.5"/>
<rect x="500" y="90" width="180" height="8" fill="#27AE60" rx="0" opacity="1.0" stroke="none" stroke-width="0"/>
<circle cx="590" cy="128" r="22" fill="#27AE60" opacity="0.2" stroke="none" stroke-width="0"/>
<circle cx="590" cy="128" r="22" fill="#27AE60" opacity="0" stroke="#27AE60" stroke-width="1.5"/>
<text x="590" y="135" font-family="Noto Sans JP,Hiragino Sans,Meiryo,sans-serif" font-size="18" fill="#27AE60" font-weight="900" text-anchor="middle" opacity="1.0">3</text>
<text x="590" y="200" font-family="Noto Sans JP,Hiragino Sans,Meiryo,sans-serif" font-size="38" fill="#fff" font-weight="normal" text-anchor="middle" opacity="0.85">⚡</text>
<text x="590" y="248" font-family="Noto Sans JP,Hiragino Sans,Meiryo,sans-serif" font-size="18" fill="#fff" font-weight="bold" text-anchor="middle" opacity="1.0">PoC開発</text>
<text x="590" y="276" font-family="Noto Sans JP,Hiragino Sans,Meiryo,sans-serif" font-size="12" fill="#D8E6F2" font-weight="400" text-anchor="middle" opacity="0.75">週末2日で</text>
<text x="590" y="296" font-family="Noto Sans JP,Hiragino Sans,Meiryo,sans-serif" font-size="12" fill="#D8E6F2" font-weight="400" text-anchor="middle" opacity="0.75">動くものを作る</text>
<line x1="690" y1="220" x2="708" y2="220" stroke="#888888" stroke-width="2" opacity="0.5"/>
<polygon points="708,220 694,213 694,227" fill="#888888" opacity="0.5"/>
<rect x="700" y="90" width="180" height="260" fill="#fff" rx="14" opacity="0.07" stroke="none" stroke-width="0"/>
<rect x="700" y="90" width="180" height="260" fill="#fff" rx="14" opacity="0" stroke="#9B59B6" stroke-width="1.5"/>
<rect x="700" y="90" width="180" height="8" fill="#9B59B6" rx="0" opacity="1.0" stroke="none" stroke-width="0"/>
<circle cx="790" cy="128" r="22" fill="#9B59B6" opacity="0.2" stroke="none" stroke-width="0"/>
<circle cx="790" cy="128" r="22" fill="#9B59B6" opacity="0" stroke="#9B59B6" stroke-width="1.5"/>
<text x="790" y="135" font-family="Noto Sans JP,Hiragino Sans,Meiryo,sans-serif" font-size="18" fill="#9B59B6" font-weight="900" text-anchor="middle" opacity="1.0">4</text>
<text x="790" y="200" font-family="Noto Sans JP,Hiragino Sans,Meiryo,sans-serif" font-size="38" fill="#fff" font-weight="normal" text-anchor="middle" opacity="0.85">🔬</text>
<text x="790" y="248" font-family="Noto Sans JP,Hiragino Sans,Meiryo,sans-serif" font-size="18" fill="#fff" font-weight="bold" text-anchor="middle" opacity="1.0">検証・判断</text>
<text x="790" y="276" font-family="Noto Sans JP,Hiragino Sans,Meiryo,sans-serif" font-size="12" fill="#D8E6F2" font-weight="400" text-anchor="middle" opacity="0.75">結果を見て</text>
<text x="790" y="296" font-family="Noto Sans JP,Hiragino Sans,Meiryo,sans-serif" font-size="12" fill="#D8E6F2" font-weight="400" text-anchor="middle" opacity="0.75">次を決める</text>
<line x1="890" y1="220" x2="908" y2="220" stroke="#888888" stroke-width="2" opacity="0.5"/>
<polygon points="908,220 894,213 894,227" fill="#888888" opacity="0.5"/>
<rect x="900" y="90" width="180" height="260" fill="#fff" rx="14" opacity="0.07" stroke="none" stroke-width="0"/>
<rect x="900" y="90" width="180" height="260" fill="#fff" rx="14" opacity="0" stroke="#F5A623" stroke-width="1.5"/>
<rect x="900" y="90" width="180" height="8" fill="#F5A623" rx="0" opacity="1.0" stroke="none" stroke-width="0"/>
<circle cx="990" cy="128" r="22" fill="#F5A623" opacity="0.2" stroke="none" stroke-width="0"/>
<circle cx="990" cy="128" r="22" fill="#F5A623" opacity="0" stroke="#F5A623" stroke-width="1.5"/>
<text x="990" y="135" font-family="Noto Sans JP,Hiragino Sans,Meiryo,sans-serif" font-size="18" fill="#F5A623" font-weight="900" text-anchor="middle" opacity="1.0">5</text>
<text x="990" y="200" font-family="Noto Sans JP,Hiragino Sans,Meiryo,sans-serif" font-size="38" fill="#fff" font-weight="normal" text-anchor="middle" opacity="0.85">🚀</text>
<text x="990" y="248" font-family="Noto Sans JP,Hiragino Sans,Meiryo,sans-serif" font-size="18" fill="#fff" font-weight="bold" text-anchor="middle" opacity="1.0">改善・拡大</text>
<text x="990" y="276" font-family="Noto Sans JP,Hiragino Sans,Meiryo,sans-serif" font-size="12" fill="#D8E6F2" font-weight="400" text-anchor="middle" opacity="0.75">アジャイルに</text>
<text x="990" y="296" font-family="Noto Sans JP,Hiragino Sans,Meiryo,sans-serif" font-size="12" fill="#D8E6F2" font-weight="400" text-anchor="middle" opacity="0.75">繰り返す</text>
<rect x="100" y="385" width="171" height="32" fill="#F5A623" rx="16" opacity="0.15" stroke="none" stroke-width="0"/>
<rect x="100" y="385" width="171" height="32" fill="#F5A623" rx="16" opacity="0" stroke="#F5A623" stroke-width="1.5"/>
<text x="185" y="406" font-family="Noto Sans JP,Hiragino Sans,Meiryo,sans-serif" font-size="13" fill="#fff" font-weight="bold" text-anchor="middle" opacity="1.0">ChatGPT API</text>
<rect x="360" y="385" width="223" height="32" fill="#2E75B6" rx="16" opacity="0.15" stroke="none" stroke-width="0"/>
<rect x="360" y="385" width="223" height="32" fill="#2E75B6" rx="16" opacity="0" stroke="#2E75B6" stroke-width="1.5"/>
<text x="471" y="406" font-family="Noto Sans JP,Hiragino Sans,Meiryo,sans-serif" font-size="13" fill="#fff" font-weight="bold" text-anchor="middle" opacity="1.0">RAG / Vector DB</text>
<rect x="620" y="385" width="145" height="32" fill="#27AE60" rx="16" opacity="0.15" stroke="none" stroke-width="0"/>
<rect x="620" y="385" width="145" height="32" fill="#27AE60" rx="16" opacity="0" stroke="#27AE60" stroke-width="1.5"/>
<text x="692" y="406" font-family="Noto Sans JP,Hiragino Sans,Meiryo,sans-serif" font-size="13" fill="#fff" font-weight="bold" text-anchor="middle" opacity="1.0">LangChain</text>
<rect x="880" y="385" width="249" height="32" fill="#9B59B6" rx="16" opacity="0.15" stroke="none" stroke-width="0"/>
<rect x="880" y="385" width="249" height="32" fill="#9B59B6" rx="16" opacity="0" stroke="#9B59B6" stroke-width="1.5"/>
<text x="1004" y="406" font-family="Noto Sans JP,Hiragino Sans,Meiryo,sans-serif" font-size="13" fill="#fff" font-weight="bold" text-anchor="middle" opacity="1.0">FastAPI / Next.js</text>
</svg>
