<svg xmlns="http://www.w3.org/2000/svg" viewBox="0 0 1200 630" width="1200" height="630">
  <defs>
  <linearGradient id="bgB1" x1="0%" y1="0%" x2="100%" y2="100%">
    <stop offset="0%" stop-color="#0a1628"/>
    <stop offset="100%" stop-color="#0d2137"/>
  </linearGradient>
  <filter id="glowB"><feGaussianBlur stdDeviation="6" result="b"/><feMerge><feMergeNode in="b"/><feMergeNode in="SourceGraphic"/></feMerge></filter>
  </defs>
<rect width="1200" height="630" fill="url(#bgB1)"/>
<line x1="447" y1="137" x2="497" y2="132" stroke="#2E75B6" stroke-width="1" opacity="0.25"/>
<line x1="447" y1="137" x2="399" y2="124" stroke="#2E75B6" stroke-width="1" opacity="0.25"/>
<line x1="447" y1="137" x2="428" y2="93" stroke="#2E75B6" stroke-width="1" opacity="0.25"/>
<line x1="447" y1="137" x2="407" y2="181" stroke="#2E75B6" stroke-width="1" opacity="0.25"/>
<line x1="447" y1="137" x2="334" y2="192" stroke="#2E75B6" stroke-width="1" opacity="0.25"/>
<line x1="132" y1="459" x2="262" y2="494" stroke="#2E75B6" stroke-width="1" opacity="0.25"/>
<line x1="132" y1="459" x2="123" y2="468" stroke="#2E75B6" stroke-width="1" opacity="0.25"/>
<line x1="132" y1="459" x2="201" y2="437" stroke="#2E75B6" stroke-width="1" opacity="0.25"/>
<line x1="260" y1="205" x2="234" y2="151" stroke="#2E75B6" stroke-width="1" opacity="0.25"/>
<line x1="260" y1="205" x2="167" y2="191" stroke="#2E75B6" stroke-width="1" opacity="0.25"/>
<line x1="260" y1="205" x2="239" y2="338" stroke="#2E75B6" stroke-width="1" opacity="0.25"/>
<line x1="260" y1="205" x2="334" y2="192" stroke="#2E75B6" stroke-width="1" opacity="0.25"/>
<line x1="260" y1="205" x2="336" y2="254" stroke="#2E75B6" stroke-width="1" opacity="0.25"/>
<line x1="260" y1="205" x2="262" y2="159" stroke="#2E75B6" stroke-width="1" opacity="0.25"/>
<line x1="234" y1="151" x2="136" y2="95" stroke="#2E75B6" stroke-width="1" opacity="0.25"/>
<line x1="234" y1="151" x2="167" y2="191" stroke="#2E75B6" stroke-width="1" opacity="0.25"/>
<line x1="234" y1="151" x2="334" y2="192" stroke="#2E75B6" stroke-width="1" opacity="0.25"/>
<line x1="234" y1="151" x2="262" y2="159" stroke="#2E75B6" stroke-width="1" opacity="0.25"/>
<line x1="497" y1="132" x2="399" y2="124" stroke="#2E75B6" stroke-width="1" opacity="0.25"/>
<line x1="497" y1="132" x2="428" y2="93" stroke="#2E75B6" stroke-width="1" opacity="0.25"/>
<line x1="497" y1="132" x2="407" y2="181" stroke="#2E75B6" stroke-width="1" opacity="0.25"/>
<line x1="466" y1="459" x2="486" y2="412" stroke="#2E75B6" stroke-width="1" opacity="0.25"/>
<line x1="466" y1="459" x2="479" y2="359" stroke="#2E75B6" stroke-width="1" opacity="0.25"/>
<line x1="399" y1="124" x2="428" y2="93" stroke="#2E75B6" stroke-width="1" opacity="0.25"/>
<line x1="399" y1="124" x2="407" y2="181" stroke="#2E75B6" stroke-width="1" opacity="0.25"/>
<line x1="399" y1="124" x2="334" y2="192" stroke="#2E75B6" stroke-width="1" opacity="0.25"/>
<line x1="422" y1="296" x2="407" y2="181" stroke="#2E75B6" stroke-width="1" opacity="0.25"/>
<line x1="422" y1="296" x2="486" y2="412" stroke="#2E75B6" stroke-width="1" opacity="0.25"/>
<line x1="422" y1="296" x2="479" y2="359" stroke="#2E75B6" stroke-width="1" opacity="0.25"/>
<line x1="422" y1="296" x2="334" y2="192" stroke="#2E75B6" stroke-width="1" opacity="0.25"/>
<line x1="422" y1="296" x2="349" y2="381" stroke="#2E75B6" stroke-width="1" opacity="0.25"/>
<line x1="422" y1="296" x2="336" y2="254" stroke="#2E75B6" stroke-width="1" opacity="0.25"/>
<line x1="136" y1="95" x2="167" y2="191" stroke="#2E75B6" stroke-width="1" opacity="0.25"/>
<line x1="167" y1="191" x2="262" y2="159" stroke="#2E75B6" stroke-width="1" opacity="0.25"/>
<line x1="239" y1="338" x2="349" y2="381" stroke="#2E75B6" stroke-width="1" opacity="0.25"/>
<line x1="239" y1="338" x2="201" y2="437" stroke="#2E75B6" stroke-width="1" opacity="0.25"/>
<line x1="239" y1="338" x2="336" y2="254" stroke="#2E75B6" stroke-width="1" opacity="0.25"/>
<line x1="428" y1="93" x2="407" y2="181" stroke="#2E75B6" stroke-width="1" opacity="0.25"/>
<line x1="428" y1="93" x2="334" y2="192" stroke="#2E75B6" stroke-width="1" opacity="0.25"/>
<line x1="407" y1="181" x2="334" y2="192" stroke="#2E75B6" stroke-width="1" opacity="0.25"/>
<line x1="407" y1="181" x2="336" y2="254" stroke="#2E75B6" stroke-width="1" opacity="0.25"/>
<line x1="486" y1="412" x2="479" y2="359" stroke="#2E75B6" stroke-width="1" opacity="0.25"/>
<line x1="479" y1="359" x2="349" y2="381" stroke="#2E75B6" stroke-width="1" opacity="0.25"/>
<line x1="334" y1="192" x2="336" y2="254" stroke="#2E75B6" stroke-width="1" opacity="0.25"/>
<line x1="334" y1="192" x2="262" y2="159" stroke="#2E75B6" stroke-width="1" opacity="0.25"/>
<line x1="349" y1="381" x2="336" y2="254" stroke="#2E75B6" stroke-width="1" opacity="0.25"/>
<line x1="262" y1="494" x2="201" y2="437" stroke="#2E75B6" stroke-width="1" opacity="0.25"/>
<line x1="123" y1="468" x2="201" y2="437" stroke="#2E75B6" stroke-width="1" opacity="0.25"/>
<line x1="336" y1="254" x2="262" y2="159" stroke="#2E75B6" stroke-width="1" opacity="0.25"/>
<circle cx="447" cy="137" r="6" fill="#2E75B6" opacity="0.8" stroke="none" stroke-width="0"/>
<circle cx="447" cy="137" r="3" fill="#fff" opacity="0.9" stroke="none" stroke-width="0"/>
<circle cx="132" cy="459" r="6" fill="#2E75B6" opacity="0.8" stroke="none" stroke-width="0"/>
<circle cx="132" cy="459" r="3" fill="#fff" opacity="0.9" stroke="none" stroke-width="0"/>
<circle cx="260" cy="205" r="6" fill="#2E75B6" opacity="0.8" stroke="none" stroke-width="0"/>
<circle cx="260" cy="205" r="3" fill="#fff" opacity="0.9" stroke="none" stroke-width="0"/>
<circle cx="234" cy="151" r="6" fill="#2E75B6" opacity="0.8" stroke="none" stroke-width="0"/>
<circle cx="234" cy="151" r="3" fill="#fff" opacity="0.9" stroke="none" stroke-width="0"/>
<circle cx="497" cy="132" r="6" fill="#2E75B6" opacity="0.8" stroke="none" stroke-width="0"/>
<circle cx="497" cy="132" r="3" fill="#fff" opacity="0.9" stroke="none" stroke-width="0"/>
<circle cx="466" cy="459" r="6" fill="#2E75B6" opacity="0.8" stroke="none" stroke-width="0"/>
<circle cx="466" cy="459" r="3" fill="#fff" opacity="0.9" stroke="none" stroke-width="0"/>
<circle cx="399" cy="124" r="6" fill="#2E75B6" opacity="0.8" stroke="none" stroke-width="0"/>
<circle cx="399" cy="124" r="3" fill="#fff" opacity="0.9" stroke="none" stroke-width="0"/>
<circle cx="422" cy="296" r="6" fill="#2E75B6" opacity="0.8" stroke="none" stroke-width="0"/>
<circle cx="422" cy="296" r="3" fill="#fff" opacity="0.9" stroke="none" stroke-width="0"/>
<circle cx="136" cy="95" r="6" fill="#2E75B6" opacity="0.8" stroke="none" stroke-width="0"/>
<circle cx="136" cy="95" r="3" fill="#fff" opacity="0.9" stroke="none" stroke-width="0"/>
<circle cx="167" cy="191" r="6" fill="#2E75B6" opacity="0.8" stroke="none" stroke-width="0"/>
<circle cx="167" cy="191" r="3" fill="#fff" opacity="0.9" stroke="none" stroke-width="0"/>
<circle cx="239" cy="338" r="6" fill="#2E75B6" opacity="0.8" stroke="none" stroke-width="0"/>
<circle cx="239" cy="338" r="3" fill="#fff" opacity="0.9" stroke="none" stroke-width="0"/>
<circle cx="428" cy="93" r="6" fill="#2E75B6" opacity="0.8" stroke="none" stroke-width="0"/>
<circle cx="428" cy="93" r="3" fill="#fff" opacity="0.9" stroke="none" stroke-width="0"/>
<circle cx="407" cy="181" r="6" fill="#2E75B6" opacity="0.8" stroke="none" stroke-width="0"/>
<circle cx="407" cy="181" r="3" fill="#fff" opacity="0.9" stroke="none" stroke-width="0"/>
<circle cx="486" cy="412" r="6" fill="#2E75B6" opacity="0.8" stroke="none" stroke-width="0"/>
<circle cx="486" cy="412" r="3" fill="#fff" opacity="0.9" stroke="none" stroke-width="0"/>
<circle cx="479" cy="359" r="6" fill="#2E75B6" opacity="0.8" stroke="none" stroke-width="0"/>
<circle cx="479" cy="359" r="3" fill="#fff" opacity="0.9" stroke="none" stroke-width="0"/>
<circle cx="334" cy="192" r="6" fill="#2E75B6" opacity="0.8" stroke="none" stroke-width="0"/>
<circle cx="334" cy="192" r="3" fill="#fff" opacity="0.9" stroke="none" stroke-width="0"/>
<circle cx="349" cy="381" r="6" fill="#2E75B6" opacity="0.8" stroke="none" stroke-width="0"/>
<circle cx="349" cy="381" r="3" fill="#fff" opacity="0.9" stroke="none" stroke-width="0"/>
<circle cx="262" cy="494" r="6" fill="#2E75B6" opacity="0.8" stroke="none" stroke-width="0"/>
<circle cx="262" cy="494" r="3" fill="#fff" opacity="0.9" stroke="none" stroke-width="0"/>
<circle cx="123" cy="468" r="6" fill="#2E75B6" opacity="0.8" stroke="none" stroke-width="0"/>
<circle cx="123" cy="468" r="3" fill="#fff" opacity="0.9" stroke="none" stroke-width="0"/>
<circle cx="201" cy="437" r="6" fill="#2E75B6" opacity="0.8" stroke="none" stroke-width="0"/>
<circle cx="201" cy="437" r="3" fill="#fff" opacity="0.9" stroke="none" stroke-width="0"/>
<circle cx="336" cy="254" r="6" fill="#2E75B6" opacity="0.8" stroke="none" stroke-width="0"/>
<circle cx="336" cy="254" r="3" fill="#fff" opacity="0.9" stroke="none" stroke-width="0"/>
<circle cx="262" cy="159" r="6" fill="#2E75B6" opacity="0.8" stroke="none" stroke-width="0"/>
<circle cx="262" cy="159" r="3" fill="#fff" opacity="0.9" stroke="none" stroke-width="0"/>
<circle cx="320" cy="315" r="90" fill="#2E75B6" opacity="0.12" stroke="none" stroke-width="0"/>
<circle cx="320" cy="315" r="70" fill="#2E75B6" opacity="0.18" stroke="none" stroke-width="0"/>
<circle cx="320" cy="315" r="50" fill="#2E75B6" opacity="0.3" stroke="none" stroke-width="0"/>
<text x="320" y="308" font-family="Noto Sans JP,Hiragino Sans,Meiryo,sans-serif" font-size="56" fill="#fff" font-weight="normal" text-anchor="middle" opacity="1.0">🤖</text>
<text x="320" y="360" font-family="Noto Sans JP,Hiragino Sans,Meiryo,sans-serif" font-size="16" fill="#F5A623" font-weight="bold" text-anchor="middle" opacity="1.0">LLM</text>
<rect x="80" y="60" width="100" height="32" fill="#F5A623" rx="16" opacity="0.15" stroke="none" stroke-width="0"/>
<rect x="80" y="60" width="100" height="32" fill="#F5A623" rx="16" opacity="0" stroke="#F5A623" stroke-width="1.5"/>
<text x="130" y="82" font-family="Noto Sans JP,Hiragino Sans,Meiryo,sans-serif" font-size="14" fill="#fff" font-weight="bold" text-anchor="middle" opacity="1.0">GPT-4o</text>
<line x1="130" y1="92" x2="320" y2="315" stroke="#F5A623" stroke-width="1" opacity="0.2" stroke-dasharray="3 3"/>
<rect x="490" y="100" width="64" height="32" fill="#27AE60" rx="16" opacity="0.15" stroke="none" stroke-width="0"/>
<rect x="490" y="100" width="64" height="32" fill="#27AE60" rx="16" opacity="0" stroke="#27AE60" stroke-width="1.5"/>
<text x="522" y="122" font-family="Noto Sans JP,Hiragino Sans,Meiryo,sans-serif" font-size="14" fill="#fff" font-weight="bold" text-anchor="middle" opacity="1.0">RAG</text>
<line x1="522" y1="132" x2="320" y2="315" stroke="#27AE60" stroke-width="1" opacity="0.2" stroke-dasharray="3 3"/>
<rect x="60" y="480" width="136" height="32" fill="#9B59B6" rx="16" opacity="0.15" stroke="none" stroke-width="0"/>
<rect x="60" y="480" width="136" height="32" fill="#9B59B6" rx="16" opacity="0" stroke="#9B59B6" stroke-width="1.5"/>
<text x="128" y="502" font-family="Noto Sans JP,Hiragino Sans,Meiryo,sans-serif" font-size="14" fill="#fff" font-weight="bold" text-anchor="middle" opacity="1.0">LangChain</text>
<line x1="128" y1="512" x2="320" y2="315" stroke="#9B59B6" stroke-width="1" opacity="0.2" stroke-dasharray="3 3"/>
<rect x="460" y="460" width="148" height="32" fill="#2E75B6" rx="16" opacity="0.15" stroke="none" stroke-width="0"/>
<rect x="460" y="460" width="148" height="32" fill="#2E75B6" rx="16" opacity="0" stroke="#2E75B6" stroke-width="1.5"/>
<text x="534" y="482" font-family="Noto Sans JP,Hiragino Sans,Meiryo,sans-serif" font-size="14" fill="#fff" font-weight="bold" text-anchor="middle" opacity="1.0">Embeddings</text>
<line x1="534" y1="492" x2="320" y2="315" stroke="#2E75B6" stroke-width="1" opacity="0.2" stroke-dasharray="3 3"/>
<rect x="80" y="270" width="100" height="32" fill="#E67E22" rx="16" opacity="0.15" stroke="none" stroke-width="0"/>
<rect x="80" y="270" width="100" height="32" fill="#E67E22" rx="16" opacity="0" stroke="#E67E22" stroke-width="1.5"/>
<text x="130" y="292" font-family="Noto Sans JP,Hiragino Sans,Meiryo,sans-serif" font-size="14" fill="#fff" font-weight="bold" text-anchor="middle" opacity="1.0">Claude</text>
<line x1="130" y1="302" x2="320" y2="315" stroke="#E67E22" stroke-width="1" opacity="0.2" stroke-dasharray="3 3"/>
<rect x="460" y="270" width="136" height="32" fill="#27AE60" rx="16" opacity="0.15" stroke="none" stroke-width="0"/>
<rect x="460" y="270" width="136" height="32" fill="#27AE60" rx="16" opacity="0" stroke="#27AE60" stroke-width="1.5"/>
<text x="528" y="292" font-family="Noto Sans JP,Hiragino Sans,Meiryo,sans-serif" font-size="14" fill="#fff" font-weight="bold" text-anchor="middle" opacity="1.0">Vector DB</text>
<line x1="528" y1="302" x2="320" y2="315" stroke="#27AE60" stroke-width="1" opacity="0.2" stroke-dasharray="3 3"/>
<rect x="608" y="60" width="5" height="510" fill="#F5A623" rx="3" opacity="1.0" stroke="none" stroke-width="0"/>
<text x="636" y="140" font-family="Noto Sans JP,Hiragino Sans,Meiryo,sans-serif" font-size="50" fill="#fff" font-weight="900" text-anchor="start" opacity="1.0">AIツール開発を</text>
<text x="636" y="205" font-family="Noto Sans JP,Hiragino Sans,Meiryo,sans-serif" font-size="40" fill="#F5A623" font-weight="900" text-anchor="start" opacity="1.0">週末スポット発注で</text>
<text x="636" y="260" font-family="Noto Sans JP,Hiragino Sans,Meiryo,sans-serif" font-size="50" fill="#fff" font-weight="900" text-anchor="start" opacity="1.0">実現する</text>
<text x="636" y="322" font-family="Noto Sans JP,Hiragino Sans,Meiryo,sans-serif" font-size="20" fill="#D8E6F2" font-weight="400" text-anchor="start" opacity="0.8">LLM・RAG・ChatGPT API対応の</text>
<text x="636" y="352" font-family="Noto Sans JP,Hiragino Sans,Meiryo,sans-serif" font-size="20" fill="#D8E6F2" font-weight="400" text-anchor="start" opacity="0.8">AIエンジニアに短期スポット依頼</text>
<rect x="636" y="390" width="510" height="130" fill="#2E75B6" rx="12" opacity="0.08" stroke="none" stroke-width="0"/>
<rect x="636" y="390" width="510" height="130" fill="#2E75B6" rx="12" opacity="0" stroke="#2E75B6" stroke-width="1"/>
<text x="891" y="420" font-family="Noto Sans JP,Hiragino Sans,Meiryo,sans-serif" font-size="14" fill="#D8E6F2" font-weight="bold" text-anchor="middle" opacity="0.7">採用 vs スポット発注</text>
<text x="660" y="452" font-family="Noto Sans JP,Hiragino Sans,Meiryo,sans-serif" font-size="13" fill="#888888" font-weight="400" text-anchor="start" opacity="1.0">従来の採用</text>
<rect x="770" y="438" width="320" height="20" fill="#E53E3E" rx="4" opacity="0.7" stroke="none" stroke-width="0"/>
<text x="1100" y="452" font-family="Noto Sans JP,Hiragino Sans,Meiryo,sans-serif" font-size="12" fill="#E53E3E" font-weight="bold" text-anchor="start" opacity="1.0">3〜6ヶ月</text>
<text x="660" y="488" font-family="Noto Sans JP,Hiragino Sans,Meiryo,sans-serif" font-size="13" fill="#F5A623" font-weight="bold" text-anchor="start" opacity="1.0">ANKEN</text>
<rect x="770" y="474" width="60" height="20" fill="#F5A623" rx="4" opacity="0.9" stroke="none" stroke-width="0"/>
<text x="840" y="488" font-family="Noto Sans JP,Hiragino Sans,Meiryo,sans-serif" font-size="12" fill="#F5A623" font-weight="bold" text-anchor="start" opacity="1.0">最短翌日〜</text>
<rect x="636" y="545" width="180" height="52" fill="#F5A623" rx="26" opacity="1.0" stroke="none" stroke-width="0"/>
<text x="726" y="578" font-family="Noto Sans JP,Hiragino Sans,Meiryo,sans-serif" font-size="24" fill="#1B3A5C" font-weight="900" text-anchor="middle" opacity="1.0">ANKEN</text>
</svg>
