<svg xmlns="http://www.w3.org/2000/svg" viewBox="0 0 1200 630" width="1200" height="630"><rect width="1200" height="630" fill="#0a1628"/><text x="600" y="50" font-family="sans-serif" font-size="26" fill="#e2e8f0" text-anchor="middle" font-weight="bold">AI副業で成果を出すエンジニア</text><rect x="40" y="90" width="350" height="470" rx="20" fill="#1d4ed8"/><text x="215" y="200" font-family="sans-serif" font-size="80" fill="#fff" text-anchor="middle" font-weight="normal">⚡</text><text x="215" y="300" font-family="sans-serif" font-size="20" fill="#fff" text-anchor="middle" font-weight="bold">AIエージェント開発</text><text x="215" y="340" font-family="sans-serif" font-size="16" fill="#bfdbfe" text-anchor="middle" font-weight="normal">週末に実案件</text><rect x="65" y="380" width="300" height="60" rx="10" fill="rgba(0,0,0,0.25)"/><text x="215" y="418" font-family="sans-serif" font-size="15" fill="#fde68a" text-anchor="middle" font-weight="normal">🌟 AI副業で一石二鳥</text><rect x="430" y="90" width="350" height="470" rx="20" fill="#7c3aed"/><text x="605" y="200" font-family="sans-serif" font-size="80" fill="#fff" text-anchor="middle" font-weight="normal">⚛️</text><text x="605" y="300" font-family="sans-serif" font-size="20" fill="#fff" text-anchor="middle" font-weight="bold">Next.js+Supabase</text><text x="605" y="340" font-family="sans-serif" font-size="16" fill="#bfdbfe" text-anchor="middle" font-weight="normal">プロトタイプ構築</text><rect x="455" y="380" width="300" height="60" rx="10" fill="rgba(0,0,0,0.25)"/><text x="605" y="418" font-family="sans-serif" font-size="15" fill="#fde68a" text-anchor="middle" font-weight="normal">🌟 AI副業で一石二鳥</text><rect x="820" y="90" width="350" height="470" rx="20" fill="#059669"/><text x="995" y="200" font-family="sans-serif" font-size="80" fill="#fff" text-anchor="middle" font-weight="normal">📁</text><text x="995" y="300" font-family="sans-serif" font-size="20" fill="#fff" text-anchor="middle" font-weight="bold">AI案件ポートフォリオ</text><text x="995" y="340" font-family="sans-serif" font-size="16" fill="#bfdbfe" text-anchor="middle" font-weight="normal">実績を積み上げ</text><rect x="845" y="380" width="300" height="60" rx="10" fill="rgba(0,0,0,0.25)"/><text x="995" y="418" font-family="sans-serif" font-size="15" fill="#fde68a" text-anchor="middle" font-weight="normal">🌟 AI副業で一石二鳥</text></svg>