<svg xmlns="http://www.w3.org/2000/svg" viewBox="0 0 1200 630" width="1200" height="630">
  <defs>
  <linearGradient id="bgA1" x1="0%" y1="0%" x2="100%" y2="100%">
    <stop offset="0%" stop-color="#1B3A5C"/>
    <stop offset="100%" stop-color="#0F2540"/>
  </linearGradient>
  <linearGradient id="accentA1" x1="0%" y1="0%" x2="100%" y2="0%">
    <stop offset="0%" stop-color="#F5A623"/>
    <stop offset="100%" stop-color="#E09410"/>
  </linearGradient>
  <filter id="glow"><feGaussianBlur stdDeviation="8" result="blur"/><feMerge><feMergeNode in="blur"/><feMergeNode in="SourceGraphic"/></feMerge></filter>
  </defs>
<rect width="1200" height="630" fill="url(#bgA1)"/>
<line x1="0" y1="0" x2="0" y2="630" stroke="#2E75B6" stroke-width="0.5" opacity="0.12"/>
<line x1="80" y1="0" x2="80" y2="630" stroke="#2E75B6" stroke-width="0.5" opacity="0.12"/>
<line x1="160" y1="0" x2="160" y2="630" stroke="#2E75B6" stroke-width="0.5" opacity="0.12"/>
<line x1="240" y1="0" x2="240" y2="630" stroke="#2E75B6" stroke-width="0.5" opacity="0.12"/>
<line x1="320" y1="0" x2="320" y2="630" stroke="#2E75B6" stroke-width="0.5" opacity="0.12"/>
<line x1="400" y1="0" x2="400" y2="630" stroke="#2E75B6" stroke-width="0.5" opacity="0.12"/>
<line x1="480" y1="0" x2="480" y2="630" stroke="#2E75B6" stroke-width="0.5" opacity="0.12"/>
<line x1="560" y1="0" x2="560" y2="630" stroke="#2E75B6" stroke-width="0.5" opacity="0.12"/>
<line x1="640" y1="0" x2="640" y2="630" stroke="#2E75B6" stroke-width="0.5" opacity="0.12"/>
<line x1="720" y1="0" x2="720" y2="630" stroke="#2E75B6" stroke-width="0.5" opacity="0.12"/>
<line x1="800" y1="0" x2="800" y2="630" stroke="#2E75B6" stroke-width="0.5" opacity="0.12"/>
<line x1="880" y1="0" x2="880" y2="630" stroke="#2E75B6" stroke-width="0.5" opacity="0.12"/>
<line x1="960" y1="0" x2="960" y2="630" stroke="#2E75B6" stroke-width="0.5" opacity="0.12"/>
<line x1="1040" y1="0" x2="1040" y2="630" stroke="#2E75B6" stroke-width="0.5" opacity="0.12"/>
<line x1="1120" y1="0" x2="1120" y2="630" stroke="#2E75B6" stroke-width="0.5" opacity="0.12"/>
<line x1="1200" y1="0" x2="1200" y2="630" stroke="#2E75B6" stroke-width="0.5" opacity="0.12"/>
<line x1="0" y1="0" x2="1200" y2="0" stroke="#2E75B6" stroke-width="0.5" opacity="0.12"/>
<line x1="0" y1="80" x2="1200" y2="80" stroke="#2E75B6" stroke-width="0.5" opacity="0.12"/>
<line x1="0" y1="160" x2="1200" y2="160" stroke="#2E75B6" stroke-width="0.5" opacity="0.12"/>
<line x1="0" y1="240" x2="1200" y2="240" stroke="#2E75B6" stroke-width="0.5" opacity="0.12"/>
<line x1="0" y1="320" x2="1200" y2="320" stroke="#2E75B6" stroke-width="0.5" opacity="0.12"/>
<line x1="0" y1="400" x2="1200" y2="400" stroke="#2E75B6" stroke-width="0.5" opacity="0.12"/>
<line x1="0" y1="480" x2="1200" y2="480" stroke="#2E75B6" stroke-width="0.5" opacity="0.12"/>
<line x1="0" y1="560" x2="1200" y2="560" stroke="#2E75B6" stroke-width="0.5" opacity="0.12"/>
<rect x="60" y="380" width="440" height="16" fill="#2E75B6" rx="4" opacity="0.7" stroke="none" stroke-width="0"/>
<rect x="180" y="200" width="220" height="160" fill="#0F2540" rx="8" opacity="0.95" stroke="#2E75B6" stroke-width="2"/>
<rect x="190" y="210" width="200" height="130" fill="#0a1a2e" rx="4" opacity="1.0" stroke="none" stroke-width="0"/>
<rect x="198" y="225" width="160" height="8" fill="#4A90D9" rx="2" opacity="0.6" stroke="none" stroke-width="0"/>
<rect x="198" y="243" width="100" height="8" fill="#4A90D9" rx="2" opacity="0.6" stroke="none" stroke-width="0"/>
<rect x="198" y="261" width="140" height="8" fill="#4A90D9" rx="2" opacity="0.6" stroke="none" stroke-width="0"/>
<rect x="198" y="279" width="80" height="8" fill="#4A90D9" rx="2" opacity="0.6" stroke="none" stroke-width="0"/>
<rect x="198" y="297" width="120" height="8" fill="#4A90D9" rx="2" opacity="0.6" stroke="none" stroke-width="0"/>
<rect x="198" y="315" width="90" height="8" fill="#4A90D9" rx="2" opacity="0.6" stroke="none" stroke-width="0"/>
<rect x="278" y="360" width="24" height="24" fill="#2E75B6" rx="2" opacity="0.7" stroke="none" stroke-width="0"/>
<rect x="256" y="378" width="68" height="6" fill="#2E75B6" rx="2" opacity="0.7" stroke="none" stroke-width="0"/>
<rect x="165" y="390" width="250" height="18" fill="#2E75B6" rx="4" opacity="0.5" stroke="none" stroke-width="0"/>
<circle cx="290" cy="160" r="32" fill="#2E75B6" opacity="0.8" stroke="none" stroke-width="0"/>
<path d="M250 230 Q290 195 330 230 L350 320 L230 320 Z" fill="#2E75B6" opacity="0.7"/>
<rect x="120" y="80" width="118" height="36" fill="#F5A623" rx="18" opacity="0.9" stroke="none" stroke-width="0"/>
<text x="179" y="104" font-family="Noto Sans JP,Hiragino Sans,Meiryo,sans-serif" font-size="14" fill="#fff" font-weight="bold" text-anchor="middle" opacity="1.0">LP実装待ち</text>
<line x1="179" y1="116" x2="290" y2="192" stroke="#F5A623" stroke-width="1" opacity="0.3" stroke-dasharray="4 4"/>
<rect x="310" y="60" width="133" height="36" fill="#E53E3E" rx="18" opacity="0.9" stroke="none" stroke-width="0"/>
<text x="376" y="84" font-family="Noto Sans JP,Hiragino Sans,Meiryo,sans-serif" font-size="14" fill="#fff" font-weight="bold" text-anchor="middle" opacity="1.0">API連携バグ</text>
<line x1="376" y1="96" x2="290" y2="192" stroke="#E53E3E" stroke-width="1" opacity="0.3" stroke-dasharray="4 4"/>
<rect x="480" y="95" width="133" height="36" fill="#2E75B6" rx="18" opacity="0.9" stroke="none" stroke-width="0"/>
<text x="546" y="119" font-family="Noto Sans JP,Hiragino Sans,Meiryo,sans-serif" font-size="14" fill="#fff" font-weight="bold" text-anchor="middle" opacity="1.0">社内ツール改修</text>
<line x1="546" y1="131" x2="290" y2="192" stroke="#2E75B6" stroke-width="1" opacity="0.3" stroke-dasharray="4 4"/>
<rect x="90" y="145" width="103" height="36" fill="#27AE60" rx="18" opacity="0.9" stroke="none" stroke-width="0"/>
<text x="141" y="169" font-family="Noto Sans JP,Hiragino Sans,Meiryo,sans-serif" font-size="14" fill="#fff" font-weight="bold" text-anchor="middle" opacity="1.0">PoC検証</text>
<line x1="141" y1="181" x2="290" y2="192" stroke="#27AE60" stroke-width="1" opacity="0.3" stroke-dasharray="4 4"/>
<rect x="450" y="155" width="88" height="36" fill="#9B59B6" rx="18" opacity="0.9" stroke="none" stroke-width="0"/>
<text x="494" y="179" font-family="Noto Sans JP,Hiragino Sans,Meiryo,sans-serif" font-size="14" fill="#fff" font-weight="bold" text-anchor="middle" opacity="1.0">バグ修正</text>
<line x1="494" y1="191" x2="290" y2="192" stroke="#9B59B6" stroke-width="1" opacity="0.3" stroke-dasharray="4 4"/>
<rect x="620" y="60" width="6" height="500" fill="#F5A623" rx="3" opacity="1.0" stroke="none" stroke-width="0"/>
<text x="650" y="130" font-family="Noto Sans JP,Hiragino Sans,Meiryo,sans-serif" font-size="52" fill="#D8E6F2" font-weight="900" text-anchor="start" opacity="1.0">開発現場の</text>
<text x="650" y="200" font-family="Noto Sans JP,Hiragino Sans,Meiryo,sans-serif" font-size="52" fill="#fff" font-weight="900" text-anchor="start" opacity="1.0">リソース不足を</text>
<text x="650" y="280" font-family="Noto Sans JP,Hiragino Sans,Meiryo,sans-serif" font-size="44" fill="#F5A623" font-weight="900" text-anchor="start" opacity="1.0">今すぐ解決する</text>
<text x="650" y="350" font-family="Noto Sans JP,Hiragino Sans,Meiryo,sans-serif" font-size="28" fill="#D8E6F2" font-weight="400" text-anchor="start" opacity="1.0">スポット発注という</text>
<text x="650" y="390" font-family="Noto Sans JP,Hiragino Sans,Meiryo,sans-serif" font-size="28" fill="#D8E6F2" font-weight="400" text-anchor="start" opacity="1.0">新しい選択肢</text>
<rect x="650" y="440" width="155" height="44" fill="#F5A623" rx="22" opacity="0.15" stroke="none" stroke-width="0"/>
<rect x="650" y="440" width="155" height="44" fill="#F5A623" rx="22" opacity="0" stroke="#F5A623" stroke-width="1.5"/>
<text x="727" y="468" font-family="Noto Sans JP,Hiragino Sans,Meiryo,sans-serif" font-size="15" fill="#fff" font-weight="bold" text-anchor="middle" opacity="1.0">固定費ゼロ</text>
<rect x="820" y="440" width="155" height="44" fill="#2E75B6" rx="22" opacity="0.15" stroke="none" stroke-width="0"/>
<rect x="820" y="440" width="155" height="44" fill="#2E75B6" rx="22" opacity="0" stroke="#2E75B6" stroke-width="1.5"/>
<text x="897" y="468" font-family="Noto Sans JP,Hiragino Sans,Meiryo,sans-serif" font-size="15" fill="#fff" font-weight="bold" text-anchor="middle" opacity="1.0">タスク単位</text>
<rect x="990" y="440" width="155" height="44" fill="#27AE60" rx="22" opacity="0.15" stroke="none" stroke-width="0"/>
<rect x="990" y="440" width="155" height="44" fill="#27AE60" rx="22" opacity="0" stroke="#27AE60" stroke-width="1.5"/>
<text x="1067" y="468" font-family="Noto Sans JP,Hiragino Sans,Meiryo,sans-serif" font-size="15" fill="#fff" font-weight="bold" text-anchor="middle" opacity="1.0">最短翌日稼働</text>
<rect x="650" y="520" width="180" height="52" fill="#F5A623" rx="26" opacity="1.0" stroke="none" stroke-width="0"/>
<text x="740" y="553" font-family="Noto Sans JP,Hiragino Sans,Meiryo,sans-serif" font-size="24" fill="#1B3A5C" font-weight="900" text-anchor="middle" opacity="1.0">ANKEN</text>
</svg>
