<svg xmlns="http://www.w3.org/2000/svg" viewBox="0 0 1200 630" width="1200" height="630"><rect width="1200" height="630" fill="#0c1a2e"/><text x="600" y="50" font-family="sans-serif" font-size="28" fill="#e2e8f0" text-anchor="middle" font-weight="bold">マイクロコミット｜自分のペースで副業</text><rect x="60" y="90" width="140" height="140" rx="12" fill="#374151"/><text x="130" y="175" font-family="sans-serif" font-size="36" fill="#fff" text-anchor="middle" font-weight="bold">月</text><rect x="222" y="90" width="140" height="140" rx="12" fill="#374151"/><text x="292" y="175" font-family="sans-serif" font-size="36" fill="#fff" text-anchor="middle" font-weight="bold">火</text><rect x="384" y="90" width="140" height="140" rx="12" fill="#374151"/><text x="454" y="175" font-family="sans-serif" font-size="36" fill="#fff" text-anchor="middle" font-weight="bold">水</text><rect x="546" y="90" width="140" height="140" rx="12" fill="#374151"/><text x="616" y="175" font-family="sans-serif" font-size="36" fill="#fff" text-anchor="middle" font-weight="bold">木</text><rect x="708" y="90" width="140" height="140" rx="12" fill="#374151"/><text x="778" y="175" font-family="sans-serif" font-size="36" fill="#fff" text-anchor="middle" font-weight="bold">金</text><rect x="870" y="90" width="140" height="140" rx="12" fill="#1d4ed8"/><text x="940" y="175" font-family="sans-serif" font-size="36" fill="#fff" text-anchor="middle" font-weight="bold">土</text><rect x="1032" y="90" width="140" height="140" rx="12" fill="#0891b2"/><text x="1102" y="175" font-family="sans-serif" font-size="36" fill="#fff" text-anchor="middle" font-weight="bold">日</text><rect x="340" y="280" width="200" height="80" rx="12" fill="#065f46"/><text x="440" y="328" font-family="sans-serif" font-size="20" fill="#6ee7b7" text-anchor="middle" font-weight="bold">タスク完了</text><rect x="580" y="280" width="200" height="80" rx="12" fill="#065f46"/><text x="680" y="328" font-family="sans-serif" font-size="20" fill="#6ee7b7" text-anchor="middle" font-weight="bold">副収入獲得</text><line x1="490" y1="250" x2="490" y2="250" stroke="#38bdf8" stroke-width="4"/><polygon points="490,242 506,250 490,258" fill="#38bdf8"/><text x="600" y="420" font-family="sans-serif" font-size="20" fill="#94a3b8" text-anchor="middle" font-weight="normal">🟦 土・日のみ稼働 → タスク完了 → 収入積み上げ</text><rect x="200" y="470" width="800" height="100" rx="16" fill="#1e3a5f"/><text x="600" y="510" font-family="sans-serif" font-size="20" fill="#93c5fd" text-anchor="middle" font-weight="bold">週1〜2日の稼働だけで</text><text x="600" y="545" font-family="sans-serif" font-size="18" fill="#bfdbfe" text-anchor="middle" font-weight="normal">月数万円〜十数万円の副収入</text></svg>