<svg xmlns="http://www.w3.org/2000/svg" viewBox="0 0 1200 630" width="1200" height="630">
<defs>
  <linearGradient id="bgA" x1="0%" y1="0%" x2="100%" y2="100%">
    <stop offset="0%" stop-color="#0B1628"/>
    <stop offset="100%" stop-color="#0F2040"/>
  </linearGradient>
  <linearGradient id="deskA" x1="0%" y1="0%" x2="0%" y2="100%">
    <stop offset="0%" stop-color="#1D3260"/>
    <stop offset="100%" stop-color="#12203E"/>
  </linearGradient>
  <radialGradient id="floorGlow" cx="50%" cy="0%" r="60%">
    <stop offset="0%" stop-color="#2E5BA0" stop-opacity="0.18"/>
    <stop offset="100%" stop-color="#0B1628" stop-opacity="0"/>
  </radialGradient>
</defs>

<!-- Background -->
<rect width="1200" height="630" fill="url(#bgA)"/>

<!-- Subtle grid (left half only) -->
<g opacity="0.07" stroke="#4A90D9" stroke-width="0.8">
  <line x1="0" y1="80" x2="615" y2="80"/>
  <line x1="0" y1="160" x2="615" y2="160"/>
  <line x1="0" y1="240" x2="615" y2="240"/>
  <line x1="0" y1="320" x2="615" y2="320"/>
  <line x1="0" y1="400" x2="615" y2="400"/>
  <line x1="0" y1="480" x2="615" y2="480"/>
  <line x1="0" y1="560" x2="615" y2="560"/>
  <line x1="80" y1="0" x2="80" y2="630"/>
  <line x1="160" y1="0" x2="160" y2="630"/>
  <line x1="240" y1="0" x2="240" y2="630"/>
  <line x1="320" y1="0" x2="320" y2="630"/>
  <line x1="400" y1="0" x2="400" y2="630"/>
  <line x1="480" y1="0" x2="480" y2="630"/>
  <line x1="560" y1="0" x2="560" y2="630"/>
</g>

<!-- Floor ambient glow -->
<ellipse cx="295" cy="560" rx="240" ry="30" fill="url(#floorGlow)"/>
<rect x="0" y="530" width="615" height="100" fill="#060E1C" opacity="0.5"/>

<!-- ===== DESK ===== -->
<rect x="65" y="415" width="490" height="24" rx="8" fill="url(#deskA)"/>
<rect x="65" y="437" width="490" height="7" rx="3" fill="#090F1D" opacity="0.6"/>
<!-- Desk legs -->
<rect x="90" y="444" width="16" height="68" rx="4" fill="#111E38"/>
<rect x="520" y="444" width="16" height="68" rx="4" fill="#111E38"/>
<!-- Desk feet -->
<rect x="82" y="509" width="32" height="8" rx="4" fill="#0D1830"/>
<rect x="512" y="509" width="32" height="8" rx="4" fill="#0D1830"/>

<!-- Chair back -->
<rect x="264" y="338" width="16" height="90" rx="6" fill="#152645"/>
<rect x="245" y="338" width="96" height="18" rx="9" fill="#1B3258"/>

<!-- Monitor -->
<rect x="195" y="278" width="200" height="140" rx="10" fill="#0A1422"/>
<rect x="200" y="283" width="190" height="130" rx="7" fill="#07101E"/>
<!-- Screen glow -->
<rect x="204" y="287" width="182" height="122" rx="5" fill="#0C213D"/>
<!-- Browser chrome -->
<rect x="204" y="287" width="182" height="18" rx="5" fill="#142E52"/>
<circle cx="213" cy="296" r="4" fill="#E53E3E" opacity="0.85"/>
<circle cx="225" cy="296" r="4" fill="#F5A623" opacity="0.85"/>
<circle cx="237" cy="296" r="4" fill="#27AE60" opacity="0.85"/>
<!-- Code / task list on screen -->
<rect x="210" y="313" width="110" height="5" rx="2" fill="#4A90D9" opacity="0.75"/>
<rect x="210" y="325" width="75" height="5" rx="2" fill="#F5A623" opacity="0.65"/>
<rect x="210" y="337" width="130" height="5" rx="2" fill="#4A90D9" opacity="0.5"/>
<rect x="222" y="349" width="85" height="5" rx="2" fill="#27AE60" opacity="0.7"/>
<rect x="222" y="361" width="60" height="5" rx="2" fill="#E53E3E" opacity="0.65"/>
<rect x="210" y="373" width="100" height="5" rx="2" fill="#9B59B6" opacity="0.65"/>
<rect x="210" y="385" width="88" height="5" rx="2" fill="#4A90D9" opacity="0.5"/>
<!-- Screen glow overlay -->
<rect x="200" y="283" width="190" height="130" rx="7" fill="#1A4A8A" opacity="0.05"/>
<!-- Monitor stand -->
<rect x="275" y="418" width="36" height="10" rx="4" fill="#0D1A30"/>
<rect x="260" y="426" width="66" height="7" rx="3" fill="#0D1A30"/>

<!-- Keyboard -->
<rect x="188" y="400" width="190" height="18" rx="5" fill="#152540"/>
<g opacity="0.45" fill="#2E4870">
  <rect x="194" y="403" width="12" height="6" rx="1.5"/>
  <rect x="210" y="403" width="12" height="6" rx="1.5"/>
  <rect x="226" y="403" width="12" height="6" rx="1.5"/>
  <rect x="242" y="403" width="12" height="6" rx="1.5"/>
  <rect x="258" y="403" width="12" height="6" rx="1.5"/>
  <rect x="274" y="403" width="12" height="6" rx="1.5"/>
  <rect x="194" y="413" width="50" height="5" rx="1.5"/>
  <rect x="250" y="413" width="78" height="5" rx="1.5"/>
  <rect x="335" y="413" width="38" height="5" rx="1.5"/>
</g>

<!-- Coffee mug -->
<rect x="435" y="385" width="40" height="32" rx="7" fill="#1A2E50"/>
<rect x="435" y="385" width="40" height="8" rx="7" fill="#F5A623" opacity="0.25"/>
<path d="M475 396 Q492 402 475 412" stroke="#1A2E50" stroke-width="7" fill="none" stroke-linecap="round"/>
<path d="M445 382 Q448 372 445 362" stroke="#7B96B8" stroke-width="2" fill="none" stroke-linecap="round" opacity="0.45"/>
<path d="M455 379 Q458 369 455 358" stroke="#7B96B8" stroke-width="2" fill="none" stroke-linecap="round" opacity="0.35"/>

<!-- Sticky note on desk -->
<rect x="100" y="390" width="72" height="26" rx="4" fill="#F5A623" opacity="0.2" transform="rotate(-4 136 403)"/>
<rect x="103" y="395" width="52" height="4" rx="2" fill="#F5A623" opacity="0.3" transform="rotate(-4 129 397)"/>
<rect x="103" y="403" width="38" height="4" rx="2" fill="#F5A623" opacity="0.2" transform="rotate(-4 122 405)"/>

<!-- ===== CHARACTER: Female Webディレクター ===== -->

<!-- Lower body (legs, mostly behind desk) -->
<rect x="243" y="378" width="52" height="42" rx="10" fill="#1E3A60"/>
<rect x="297" y="378" width="52" height="42" rx="10" fill="#1E3A60"/>

<!-- Body / torso -->
<rect x="234" y="298" width="120" height="100" rx="18" fill="#2B5BA8"/>
<!-- Blazer lapel / collar -->
<polygon points="294,298 272,328 294,337 316,328" fill="#F4A974"/>
<!-- Blazer center line -->
<rect x="291" y="330" width="6" height="62" rx="3" fill="#1E478C" opacity="0.45"/>
<!-- Blazer pocket square -->
<rect x="243" y="316" width="18" height="14" rx="3" fill="#1E478C" opacity="0.6"/>
<rect x="245" y="314" width="14" height="5" rx="2" fill="#F5A623" opacity="0.5"/>

<!-- Left arm (reaching to keyboard) -->
<rect x="190" y="308" width="50" height="24" rx="12" fill="#2B5BA8"/>
<rect x="182" y="324" width="58" height="22" rx="11" fill="#2B5BA8"/>
<!-- Left hand -->
<ellipse cx="208" cy="358" rx="22" ry="14" fill="#F4A974"/>
<path d="M196 352 Q208 347 220 352" stroke="#E09060" stroke-width="1.5" fill="none" opacity="0.4"/>

<!-- Right arm (at mouse) -->
<rect x="348" y="308" width="50" height="24" rx="12" fill="#2B5BA8"/>
<rect x="358" y="324" width="58" height="22" rx="11" fill="#2B5BA8"/>
<!-- Right hand -->
<ellipse cx="394" cy="358" rx="20" ry="13" fill="#F4A974"/>

<!-- Neck -->
<rect x="277" y="280" width="34" height="24" rx="10" fill="#F4A974"/>

<!-- ===== HEAD ===== -->
<circle cx="294" cy="245" r="54" fill="#F4A974"/>

<!-- Ears -->
<ellipse cx="241" cy="248" rx="11" ry="16" fill="#F4A974"/>
<ellipse cx="243" cy="248" rx="7" ry="11" fill="#E89060"/>
<ellipse cx="347" cy="248" rx="11" ry="16" fill="#F4A974"/>
<ellipse cx="345" cy="248" rx="7" ry="11" fill="#E89060"/>

<!-- ===== HAIR ===== -->
<!-- Top and crown -->
<ellipse cx="294" cy="205" rx="56" ry="36" fill="#2C1E14"/>
<rect x="238" y="205" width="112" height="45" fill="#2C1E14"/>
<!-- Side curtains -->
<ellipse cx="244" cy="237" rx="17" ry="34" fill="#2C1E14"/>
<ellipse cx="344" cy="237" rx="17" ry="34" fill="#2C1E14"/>
<!-- Shoulder-length strands -->
<rect x="238" y="246" width="14" height="78" rx="7" fill="#2C1E14"/>
<path d="M238 280 Q230 320 240 360" stroke="#2C1E14" stroke-width="14" fill="none" stroke-linecap="round"/>
<rect x="336" y="246" width="14" height="78" rx="7" fill="#2C1E14"/>
<path d="M350 280 Q358 320 348 360" stroke="#2C1E14" stroke-width="14" fill="none" stroke-linecap="round"/>
<!-- Hair highlight -->
<path d="M270 205 Q285 196 300 202" stroke="#4D3020" stroke-width="3" fill="none" opacity="0.6"/>

<!-- ===== FACE ===== -->
<!-- Eyebrows – slightly furrowed/stressed -->
<path d="M264 228 Q277 220 290 225" stroke="#2C1E14" stroke-width="5" fill="none" stroke-linecap="round"/>
<path d="M298 225 Q311 220 324 228" stroke="#2C1E14" stroke-width="5" fill="none" stroke-linecap="round"/>

<!-- Eyes -->
<ellipse cx="275" cy="241" rx="10" ry="11" fill="#fff"/>
<ellipse cx="275" cy="242" rx="7" ry="8" fill="#4A2E12"/>
<ellipse cx="275" cy="242" rx="3.5" ry="4" fill="#1A0A02"/>
<ellipse cx="278" cy="239" rx="2.5" ry="2.5" fill="#fff" opacity="0.85"/>
<ellipse cx="313" cy="241" rx="10" ry="11" fill="#fff"/>
<ellipse cx="313" cy="242" rx="7" ry="8" fill="#4A2E12"/>
<ellipse cx="313" cy="242" rx="3.5" ry="4" fill="#1A0A02"/>
<ellipse cx="316" cy="239" rx="2.5" ry="2.5" fill="#fff" opacity="0.85"/>

<!-- Lower eyelash lines -->
<path d="M266 250 Q275 254 284 250" stroke="#2C1E14" stroke-width="1.5" fill="none" opacity="0.4"/>
<path d="M304 250 Q313 254 322 250" stroke="#2C1E14" stroke-width="1.5" fill="none" opacity="0.4"/>

<!-- Nose -->
<path d="M291 255 Q294 265 297 255" stroke="#D4845A" stroke-width="2.5" fill="none" stroke-linecap="round"/>
<path d="M288 265 Q294 270 300 265" stroke="#D4845A" stroke-width="2" fill="none" stroke-linecap="round"/>

<!-- Mouth – concerned/tight lipped -->
<path d="M277 280 Q294 277 311 280" stroke="#BF5A3A" stroke-width="3.5" fill="none" stroke-linecap="round"/>

<!-- Blush (subtle stress) -->
<ellipse cx="256" cy="260" rx="15" ry="9" fill="#F08060" opacity="0.14"/>
<ellipse cx="332" cy="260" rx="15" ry="9" fill="#F08060" opacity="0.14"/>

<!-- Sweat drop (light stress indicator) -->
<ellipse cx="340" cy="210" rx="6" ry="9" fill="#4A90D9" opacity="0.5"/>
<ellipse cx="340" cy="206" rx="4" ry="5" fill="#4A90D9" opacity="0.3"/>

<!-- ===== FLOATING TASK BUBBLES ===== -->
<!-- Bubble 1 -->
<rect x="36" y="100" width="150" height="42" rx="21" fill="#E53E3E" opacity="0.93"/>
<text x="111" y="127" font-family="Noto Sans JP,Hiragino Sans,sans-serif" font-size="15" fill="#fff" font-weight="bold" text-anchor="middle">LP実装待ち</text>
<line x1="111" y1="142" x2="245" y2="205" stroke="#E53E3E" stroke-width="1.5" stroke-dasharray="4 3" opacity="0.38"/>

<!-- Bubble 2 -->
<rect x="385" y="62" width="165" height="42" rx="21" fill="#F5A623" opacity="0.93"/>
<text x="467" y="89" font-family="Noto Sans JP,Hiragino Sans,sans-serif" font-size="15" fill="#1B3A5C" font-weight="bold" text-anchor="middle">API連携バグ</text>
<line x1="467" y1="104" x2="330" y2="200" stroke="#F5A623" stroke-width="1.5" stroke-dasharray="4 3" opacity="0.38"/>

<!-- Bubble 3 -->
<rect x="30" y="268" width="128" height="40" rx="20" fill="#27AE60" opacity="0.93"/>
<text x="94" y="294" font-family="Noto Sans JP,Hiragino Sans,sans-serif" font-size="15" fill="#fff" font-weight="bold" text-anchor="middle">PoC検証</text>
<line x1="94" y1="308" x2="242" y2="270" stroke="#27AE60" stroke-width="1.5" stroke-dasharray="4 3" opacity="0.38"/>

<!-- Bubble 4 -->
<rect x="445" y="152" width="162" height="40" rx="20" fill="#9B59B6" opacity="0.93"/>
<text x="526" y="178" font-family="Noto Sans JP,Hiragino Sans,sans-serif" font-size="15" fill="#fff" font-weight="bold" text-anchor="middle">社内ツール改修</text>
<line x1="526" y1="192" x2="344" y2="232" stroke="#9B59B6" stroke-width="1.5" stroke-dasharray="4 3" opacity="0.32"/>

<!-- Bubble 5 -->
<rect x="52" y="370" width="128" height="40" rx="20" fill="#2E75B6" opacity="0.93"/>
<text x="116" y="396" font-family="Noto Sans JP,Hiragino Sans,sans-serif" font-size="15" fill="#fff" font-weight="bold" text-anchor="middle">バグ修正</text>

<!-- ===== DIVIDER ===== -->
<rect x="618" y="28" width="6" height="575" rx="3" fill="#F5A623"/>

<!-- ===== RIGHT SIDE TEXT ===== -->
<text x="652" y="122" font-family="Noto Sans JP,Hiragino Sans,sans-serif" font-size="48" fill="#D8E6F2" font-weight="900" text-anchor="start">開発現場の</text>
<text x="652" y="184" font-family="Noto Sans JP,Hiragino Sans,sans-serif" font-size="48" fill="#fff" font-weight="900" text-anchor="start">リソース不足を</text>
<text x="652" y="256" font-family="Noto Sans JP,Hiragino Sans,sans-serif" font-size="42" fill="#F5A623" font-weight="900" text-anchor="start">今すぐ解決する</text>
<text x="652" y="318" font-family="Noto Sans JP,Hiragino Sans,sans-serif" font-size="22" fill="#D8E6F2" font-weight="400" text-anchor="start" opacity="0.85">スポット発注という</text>
<text x="652" y="352" font-family="Noto Sans JP,Hiragino Sans,sans-serif" font-size="22" fill="#D8E6F2" font-weight="400" text-anchor="start" opacity="0.85">新しい選択肢</text>

<!-- Badges -->
<rect x="652" y="392" width="155" height="40" rx="20" fill="none" stroke="#F5A623" stroke-width="1.5"/>
<text x="729" y="418" font-family="Noto Sans JP,Hiragino Sans,sans-serif" font-size="14" fill="#F5A623" font-weight="bold" text-anchor="middle">固定費ゼロ</text>
<rect x="822" y="392" width="155" height="40" rx="20" fill="none" stroke="#2E75B6" stroke-width="1.5"/>
<text x="899" y="418" font-family="Noto Sans JP,Hiragino Sans,sans-serif" font-size="14" fill="#7BADDD" font-weight="bold" text-anchor="middle">タスク単位</text>
<rect x="992" y="392" width="168" height="40" rx="20" fill="none" stroke="#27AE60" stroke-width="1.5"/>
<text x="1076" y="418" font-family="Noto Sans JP,Hiragino Sans,sans-serif" font-size="14" fill="#5ACA80" font-weight="bold" text-anchor="middle">最短翌日稼働</text>

<!-- CTA button -->
<rect x="652" y="490" width="200" height="56" rx="28" fill="#F5A623"/>
<text x="752" y="525" font-family="Noto Sans JP,Hiragino Sans,sans-serif" font-size="24" fill="#1B3A5C" font-weight="900" text-anchor="middle">ANKEN</text>
<text x="870" y="525" font-family="Noto Sans JP,Hiragino Sans,sans-serif" font-size="15" fill="#5A7BA0" font-weight="400" text-anchor="start">by bisii</text>
</svg>
