<svg xmlns="http://www.w3.org/2000/svg" viewBox="0 0 1200 630" width="1200" height="630">
<defs>
  <linearGradient id="bgB" x1="0%" y1="0%" x2="100%" y2="100%">
    <stop offset="0%" stop-color="#071322"/>
    <stop offset="100%" stop-color="#0D2238"/>
  </linearGradient>
  <linearGradient id="deskB" x1="0%" y1="0%" x2="0%" y2="100%">
    <stop offset="0%" stop-color="#1B3050"/>
    <stop offset="100%" stop-color="#101E35"/>
  </linearGradient>
  <radialGradient id="screenGlowB" cx="50%" cy="50%" r="50%">
    <stop offset="0%" stop-color="#1A6ACA" stop-opacity="0.35"/>
    <stop offset="100%" stop-color="#071322" stop-opacity="0"/>
  </radialGradient>
  <radialGradient id="bgCircleB" cx="50%" cy="50%" r="50%">
    <stop offset="0%" stop-color="#1A4A9A" stop-opacity="0.22"/>
    <stop offset="100%" stop-color="#071322" stop-opacity="0"/>
  </radialGradient>
</defs>

<!-- Background -->
<rect width="1200" height="630" fill="url(#bgB)"/>

<!-- Ambient circle behind character -->
<circle cx="295" cy="310" r="250" fill="url(#bgCircleB)"/>

<!-- Grid pattern -->
<g opacity="0.07" stroke="#3A7ACA" stroke-width="0.8">
  <line x1="0" y1="80" x2="615" y2="80"/>
  <line x1="0" y1="160" x2="615" y2="160"/>
  <line x1="0" y1="240" x2="615" y2="240"/>
  <line x1="0" y1="320" x2="615" y2="320"/>
  <line x1="0" y1="400" x2="615" y2="400"/>
  <line x1="0" y1="480" x2="615" y2="480"/>
  <line x1="0" y1="560" x2="615" y2="560"/>
  <line x1="80" y1="0" x2="80" y2="630"/>
  <line x1="160" y1="0" x2="160" y2="630"/>
  <line x1="240" y1="0" x2="240" y2="630"/>
  <line x1="320" y1="0" x2="320" y2="630"/>
  <line x1="400" y1="0" x2="400" y2="630"/>
  <line x1="480" y1="0" x2="480" y2="630"/>
  <line x1="560" y1="0" x2="560" y2="630"/>
</g>

<!-- Floor shadow -->
<ellipse cx="295" cy="548" rx="230" ry="25" fill="#000" opacity="0.35"/>
<rect x="0" y="530" width="615" height="100" fill="#040C18" opacity="0.55"/>

<!-- ===== DESK ===== -->
<rect x="70" y="420" width="490" height="24" rx="8" fill="url(#deskB)"/>
<rect x="70" y="442" width="490" height="7" rx="3" fill="#060E1E" opacity="0.6"/>
<rect x="95" y="449" width="16" height="62" rx="4" fill="#101E35"/>
<rect x="530" y="449" width="16" height="62" rx="4" fill="#101E35"/>
<rect x="87" y="508" width="32" height="8" rx="4" fill="#0B1628"/>
<rect x="522" y="508" width="32" height="8" rx="4" fill="#0B1628"/>

<!-- Chair -->
<rect x="266" y="342" width="16" height="88" rx="7" fill="#121E35"/>
<rect x="248" y="342" width="98" height="18" rx="9" fill="#1A2E48"/>

<!-- ===== LAPTOP ===== -->
<!-- Laptop lid -->
<rect x="168" y="264" width="248" height="160" rx="12" fill="#0A1520"/>
<rect x="174" y="270" width="236" height="148" rx="8" fill="#06101A"/>
<!-- Screen glow effect -->
<rect x="174" y="270" width="236" height="148" rx="8" fill="url(#screenGlowB)"/>
<!-- Screen content: AI chat/code interface -->
<!-- Top bar -->
<rect x="178" y="274" width="228" height="18" rx="5" fill="#132840"/>
<circle cx="188" cy="283" r="4.5" fill="#E53E3E" opacity="0.8"/>
<circle cx="202" cy="283" r="4.5" fill="#F5A623" opacity="0.8"/>
<circle cx="216" cy="283" r="4.5" fill="#27AE60" opacity="0.8"/>
<!-- Chat bubble user -->
<rect x="260" y="300" width="136" height="28" rx="14" fill="#2E5BA0" opacity="0.9"/>
<rect x="265" y="307" width="96" height="5" rx="2" fill="#fff" opacity="0.7"/>
<rect x="265" y="316" width="68" height="5" rx="2" fill="#fff" opacity="0.5"/>
<!-- Chat bubble AI -->
<rect x="182" y="336" width="148" height="36" rx="10" fill="#0F2A40" opacity="0.95"/>
<rect x="188" y="341" width="100" height="5" rx="2" fill="#27AE60" opacity="0.8"/>
<rect x="188" y="350" width="130" height="5" rx="2" fill="#27AE60" opacity="0.6"/>
<rect x="188" y="359" width="80" height="5" rx="2" fill="#27AE60" opacity="0.5"/>
<!-- Code snippet line -->
<rect x="182" y="382" width="220" height="28" rx="6" fill="#081428" opacity="0.9"/>
<rect x="188" y="388" width="65" height="5" rx="2" fill="#F5A623" opacity="0.8"/>
<rect x="258" y="388" width="90" height="5" rx="2" fill="#4A90D9" opacity="0.7"/>
<rect x="188" y="398" width="40" height="5" rx="2" fill="#9B59B6" opacity="0.75"/>
<rect x="234" y="398" width="80" height="5" rx="2" fill="#27AE60" opacity="0.65"/>

<!-- Laptop base -->
<rect x="155" y="424" width="278" height="14" rx="5" fill="#0C1A2E"/>
<!-- Trackpad -->
<rect x="245" y="428" width="96" height="7" rx="3" fill="#0F2240" opacity="0.7"/>

<!-- ===== CHARACTER: Male AI Engineer ===== -->

<!-- Lower body -->
<rect x="248" y="384" width="52" height="42" rx="10" fill="#1A3055"/>
<rect x="302" y="384" width="52" height="42" rx="10" fill="#1A3055"/>

<!-- Body / torso (casual t-shirt, more relaxed) -->
<rect x="238" y="302" width="118" height="96" rx="18" fill="#1B6B5A"/>
<!-- T-shirt collar (crew neck) -->
<ellipse cx="297" cy="304" rx="28" ry="14" fill="#F4A974"/>
<ellipse cx="297" cy="308" rx="22" ry="9" fill="#145046"/>
<!-- Shirt seam -->
<rect x="294" y="316" width="6" height="76" rx="3" fill="#155048" opacity="0.4"/>

<!-- Left arm (forward to laptop) -->
<rect x="192" y="310" width="52" height="24" rx="12" fill="#1B6B5A"/>
<rect x="184" y="326" width="60" height="22" rx="11" fill="#1B6B5A"/>
<!-- Left hand on keyboard -->
<ellipse cx="210" cy="360" rx="24" ry="14" fill="#D4905A"/>
<path d="M198 354 Q210 349 222 354" stroke="#B87040" stroke-width="1.5" fill="none" opacity="0.4"/>

<!-- Right arm (toward trackpad/resting) -->
<rect x="350" y="310" width="52" height="24" rx="12" fill="#1B6B5A"/>
<rect x="360" y="326" width="60" height="22" rx="11" fill="#1B6B5A"/>
<!-- Right hand -->
<ellipse cx="396" cy="360" rx="22" ry="13" fill="#D4905A"/>

<!-- Neck -->
<rect x="280" y="284" width="36" height="24" rx="10" fill="#D4905A"/>

<!-- ===== HEAD ===== -->
<circle cx="298" cy="249" r="52" fill="#D4905A"/>

<!-- Ears -->
<ellipse cx="247" cy="252" rx="11" ry="16" fill="#D4905A"/>
<ellipse cx="249" cy="252" rx="7" ry="11" fill="#C07844"/>
<ellipse cx="349" cy="252" rx="11" ry="16" fill="#D4905A"/>
<ellipse cx="347" cy="252" rx="7" ry="11" fill="#C07844"/>

<!-- ===== HAIR (short, dark) ===== -->
<ellipse cx="298" cy="208" rx="54" ry="32" fill="#1E1410"/>
<rect x="244" y="208" width="108" height="38" fill="#1E1410"/>
<!-- Slight fade on sides / short cut -->
<ellipse cx="248" cy="230" rx="14" ry="20" fill="#1E1410"/>
<ellipse cx="348" cy="230" rx="14" ry="20" fill="#1E1410"/>
<!-- Hairline front -->
<path d="M252 218 Q298 204 344 218" fill="#1E1410"/>
<!-- Small wave / part -->
<path d="M280 208 Q298 200 316 208" stroke="#2D1E14" stroke-width="3" fill="#1E1410"/>

<!-- ===== FACE ===== -->
<!-- Eyebrows – focused/concentrated -->
<path d="M268 232 Q280 227 292 231" stroke="#1E1410" stroke-width="5" fill="none" stroke-linecap="round"/>
<path d="M304 231 Q316 227 328 232" stroke="#1E1410" stroke-width="5" fill="none" stroke-linecap="round"/>

<!-- Eyes (looking slightly downward at screen) -->
<ellipse cx="279" cy="244" rx="10" ry="10.5" fill="#fff"/>
<ellipse cx="279" cy="246" rx="7.5" ry="8" fill="#3A2008"/>
<ellipse cx="279" cy="246" rx="3.5" ry="3.8" fill="#100800"/>
<ellipse cx="282" cy="243" rx="2.5" ry="2.5" fill="#fff" opacity="0.8"/>
<ellipse cx="317" cy="244" rx="10" ry="10.5" fill="#fff"/>
<ellipse cx="317" cy="246" rx="7.5" ry="8" fill="#3A2008"/>
<ellipse cx="317" cy="246" rx="3.5" ry="3.8" fill="#100800"/>
<ellipse cx="320" cy="243" rx="2.5" ry="2.5" fill="#fff" opacity="0.8"/>

<!-- Nose -->
<path d="M295 257 Q298 267 301 257" stroke="#B86A38" stroke-width="2.5" fill="none" stroke-linecap="round"/>
<path d="M292 267 Q298 272 304 267" stroke="#B86A38" stroke-width="2" fill="none" stroke-linecap="round"/>

<!-- Mouth – slight smile (engaged/focused) -->
<path d="M281 281 Q298 287 315 281" stroke="#A05A28" stroke-width="3.5" fill="none" stroke-linecap="round"/>

<!-- Glasses (optional tech look) -->
<rect x="262" y="236" rx="8" ry="8" width="30" height="22" fill="none" stroke="#4A90D9" stroke-width="2.5" opacity="0.6"/>
<rect x="306" y="236" rx="8" ry="8" width="30" height="22" fill="none" stroke="#4A90D9" stroke-width="2.5" opacity="0.6"/>
<line x1="292" y1="247" x2="306" y2="247" stroke="#4A90D9" stroke-width="2.5" opacity="0.6"/>
<line x1="262" y1="247" x2="250" y2="244" stroke="#4A90D9" stroke-width="2.5" opacity="0.6"/>
<line x1="336" y1="247" x2="348" y2="244" stroke="#4A90D9" stroke-width="2.5" opacity="0.6"/>

<!-- ===== AI TECH TAGS FLOATING ===== -->
<!-- Tag 1: GPT-4o -->
<rect x="35" y="95" width="120" height="38" rx="19" fill="#27AE60" opacity="0.9"/>
<text x="95" y="120" font-family="Noto Sans JP,Hiragino Sans,sans-serif" font-size="15" fill="#fff" font-weight="bold" text-anchor="middle">GPT-4o</text>
<line x1="95" y1="133" x2="210" y2="220" stroke="#27AE60" stroke-width="1.5" stroke-dasharray="4 3" opacity="0.35"/>

<!-- Tag 2: RAG -->
<rect x="455" y="68" rx="19" ry="19" width="110" height="38" fill="#F5A623" opacity="0.9"/>
<text x="510" y="93" font-family="Noto Sans JP,Hiragino Sans,sans-serif" font-size="15" fill="#1B3A5C" font-weight="bold" text-anchor="middle">RAG</text>
<line x1="510" y1="106" x2="380" y2="200" stroke="#F5A623" stroke-width="1.5" stroke-dasharray="4 3" opacity="0.35"/>

<!-- Tag 3: LangChain -->
<rect x="28" y="280" rx="19" ry="19" width="140" height="38" fill="#9B59B6" opacity="0.9"/>
<text x="98" y="305" font-family="Noto Sans JP,Hiragino Sans,sans-serif" font-size="15" fill="#fff" font-weight="bold" text-anchor="middle">LangChain</text>
<line x1="98" y1="318" x2="210" y2="295" stroke="#9B59B6" stroke-width="1.5" stroke-dasharray="4 3" opacity="0.35"/>

<!-- Tag 4: Claude API -->
<rect x="440" y="170" rx="19" ry="19" width="155" height="38" fill="#E67E22" opacity="0.9"/>
<text x="517" y="195" font-family="Noto Sans JP,Hiragino Sans,sans-serif" font-size="15" fill="#fff" font-weight="bold" text-anchor="middle">Claude API</text>
<line x1="517" y1="208" x2="380" y2="260" stroke="#E67E22" stroke-width="1.5" stroke-dasharray="4 3" opacity="0.32"/>

<!-- Tag 5: Vector DB -->
<rect x="42" y="378" rx="19" ry="19" width="140" height="38" fill="#2E75B6" opacity="0.9"/>
<text x="112" y="403" font-family="Noto Sans JP,Hiragino Sans,sans-serif" font-size="15" fill="#fff" font-weight="bold" text-anchor="middle">Vector DB</text>

<!-- ===== DIVIDER ===== -->
<rect x="618" y="28" width="6" height="575" rx="3" fill="#F5A623"/>

<!-- ===== RIGHT SIDE TEXT ===== -->
<text x="652" y="122" font-family="Noto Sans JP,Hiragino Sans,sans-serif" font-size="46" fill="#fff" font-weight="900" text-anchor="start">AIツール開発を</text>
<text x="652" y="192" font-family="Noto Sans JP,Hiragino Sans,sans-serif" font-size="38" fill="#F5A623" font-weight="900" text-anchor="start">週末スポット発注で</text>
<text x="652" y="254" font-family="Noto Sans JP,Hiragino Sans,sans-serif" font-size="46" fill="#fff" font-weight="900" text-anchor="start">実現する</text>
<text x="652" y="316" font-family="Noto Sans JP,Hiragino Sans,sans-serif" font-size="20" fill="#D8E6F2" font-weight="400" text-anchor="start" opacity="0.85">LLM・RAG・ChatGPT API対応の</text>
<text x="652" y="346" font-family="Noto Sans JP,Hiragino Sans,sans-serif" font-size="20" fill="#D8E6F2" font-weight="400" text-anchor="start" opacity="0.85">AIエンジニアに短期スポット依頼</text>

<!-- Comparison bar -->
<rect x="652" y="388" width="508" height="118" rx="12" fill="#0F2040" opacity="0.6"/>
<rect x="652" y="388" width="508" height="118" rx="12" fill="none" stroke="#2E75B6" stroke-width="1" opacity="0.4"/>
<text x="906" y="412" font-family="Noto Sans JP,Hiragino Sans,sans-serif" font-size="13" fill="#7B96B8" font-weight="bold" text-anchor="middle" opacity="0.8">採用 vs スポット発注</text>
<text x="660" y="440" font-family="Noto Sans JP,Hiragino Sans,sans-serif" font-size="13" fill="#888" text-anchor="start">従来採用</text>
<rect x="748" y="428" width="320" height="18" rx="5" fill="#E53E3E" opacity="0.65"/>
<text x="1080" y="441" font-family="Noto Sans JP,Hiragino Sans,sans-serif" font-size="12" fill="#E53E3E" font-weight="bold" text-anchor="start">3〜6ヶ月</text>
<text x="660" y="476" font-family="Noto Sans JP,Hiragino Sans,sans-serif" font-size="13" fill="#F5A623" font-weight="bold" text-anchor="start">ANKEN</text>
<rect x="748" y="463" width="65" height="18" rx="5" fill="#F5A623" opacity="0.9"/>
<text x="824" y="476" font-family="Noto Sans JP,Hiragino Sans,sans-serif" font-size="12" fill="#F5A623" font-weight="bold" text-anchor="start">最短翌日〜</text>

<!-- CTA button -->
<rect x="652" y="524" width="200" height="56" rx="28" fill="#F5A623"/>
<text x="752" y="558" font-family="Noto Sans JP,Hiragino Sans,sans-serif" font-size="24" fill="#1B3A5C" font-weight="900" text-anchor="middle">ANKEN</text>
<text x="870" y="558" font-family="Noto Sans JP,Hiragino Sans,sans-serif" font-size="15" fill="#5A7BA0" font-weight="400" text-anchor="start">by bisii</text>
</svg>
