<svg xmlns="http://www.w3.org/2000/svg" viewBox="0 0 1200 480" width="1200" height="480">
  <defs>
  <linearGradient id="ucBg" x1="0%" y1="0%" x2="0%" y2="100%">
    <stop offset="0%" stop-color="#1B3A5C"/>
    <stop offset="100%" stop-color="#0F2540"/>
  </linearGradient>
  </defs>
<rect width="1200" height="480" fill="url(#ucBg)"/>
<line x1="0" y1="0" x2="0" y2="480" stroke="#2E75B6" stroke-width="0.5" opacity="0.07"/>
<line x1="100" y1="0" x2="100" y2="480" stroke="#2E75B6" stroke-width="0.5" opacity="0.07"/>
<line x1="200" y1="0" x2="200" y2="480" stroke="#2E75B6" stroke-width="0.5" opacity="0.07"/>
<line x1="300" y1="0" x2="300" y2="480" stroke="#2E75B6" stroke-width="0.5" opacity="0.07"/>
<line x1="400" y1="0" x2="400" y2="480" stroke="#2E75B6" stroke-width="0.5" opacity="0.07"/>
<line x1="500" y1="0" x2="500" y2="480" stroke="#2E75B6" stroke-width="0.5" opacity="0.07"/>
<line x1="600" y1="0" x2="600" y2="480" stroke="#2E75B6" stroke-width="0.5" opacity="0.07"/>
<line x1="700" y1="0" x2="700" y2="480" stroke="#2E75B6" stroke-width="0.5" opacity="0.07"/>
<line x1="800" y1="0" x2="800" y2="480" stroke="#2E75B6" stroke-width="0.5" opacity="0.07"/>
<line x1="900" y1="0" x2="900" y2="480" stroke="#2E75B6" stroke-width="0.5" opacity="0.07"/>
<line x1="1000" y1="0" x2="1000" y2="480" stroke="#2E75B6" stroke-width="0.5" opacity="0.07"/>
<line x1="1100" y1="0" x2="1100" y2="480" stroke="#2E75B6" stroke-width="0.5" opacity="0.07"/>
<line x1="1200" y1="0" x2="1200" y2="480" stroke="#2E75B6" stroke-width="0.5" opacity="0.07"/>
<line x1="0" y1="0" x2="1200" y2="0" stroke="#2E75B6" stroke-width="0.5" opacity="0.07"/>
<line x1="0" y1="100" x2="1200" y2="100" stroke="#2E75B6" stroke-width="0.5" opacity="0.07"/>
<line x1="0" y1="200" x2="1200" y2="200" stroke="#2E75B6" stroke-width="0.5" opacity="0.07"/>
<line x1="0" y1="300" x2="1200" y2="300" stroke="#2E75B6" stroke-width="0.5" opacity="0.07"/>
<line x1="0" y1="400" x2="1200" y2="400" stroke="#2E75B6" stroke-width="0.5" opacity="0.07"/>
<text x="600" y="55" font-family="Noto Sans JP,Hiragino Sans,Meiryo,sans-serif" font-size="30" fill="#fff" font-weight="900" text-anchor="middle" opacity="1.0">スポット発注のリアルなユースケース</text>
<rect x="0" y="0" width="1200" height="6" fill="#F5A623" rx="0" opacity="1.0" stroke="none" stroke-width="0"/>
<rect x="60" y="90" width="250" height="280" fill="#fff" rx="14" opacity="0.08" stroke="none" stroke-width="0"/>
<rect x="60" y="90" width="250" height="280" fill="#fff" rx="14" opacity="0" stroke="#F5A623" stroke-width="1.5"/>
<rect x="60" y="90" width="250" height="8" fill="#F5A623" rx="0" opacity="1.0" stroke="none" stroke-width="0"/>
<circle cx="96" cy="126" r="22" fill="#F5A623" opacity="0.15" stroke="none" stroke-width="0"/>
<circle cx="96" cy="126" r="22" fill="#F5A623" opacity="0" stroke="#F5A623" stroke-width="1.5"/>
<text x="96" y="133" font-family="Noto Sans JP,Hiragino Sans,Meiryo,sans-serif" font-size="18" fill="#F5A623" font-weight="900" text-anchor="middle" opacity="1.0">1</text>
<text x="185" y="190" font-family="Noto Sans JP,Hiragino Sans,Meiryo,sans-serif" font-size="42" fill="#fff" font-weight="normal" text-anchor="middle" opacity="0.9">💻</text>
<text x="185" y="250" font-family="Noto Sans JP,Hiragino Sans,Meiryo,sans-serif" font-size="22" fill="#fff" font-weight="bold" text-anchor="middle" opacity="1.0">LP実装</text>
<text x="185" y="286" font-family="Noto Sans JP,Hiragino Sans,Meiryo,sans-serif" font-size="13" fill="#D8E6F2" font-weight="400" text-anchor="middle" opacity="0.8">マーケ施策に合わせた</text>
<text x="185" y="308" font-family="Noto Sans JP,Hiragino Sans,Meiryo,sans-serif" font-size="13" fill="#D8E6F2" font-weight="400" text-anchor="middle" opacity="0.8">週末LP実装</text>
<rect x="340" y="90" width="250" height="280" fill="#fff" rx="14" opacity="0.08" stroke="none" stroke-width="0"/>
<rect x="340" y="90" width="250" height="280" fill="#fff" rx="14" opacity="0" stroke="#2E75B6" stroke-width="1.5"/>
<rect x="340" y="90" width="250" height="8" fill="#2E75B6" rx="0" opacity="1.0" stroke="none" stroke-width="0"/>
<circle cx="376" cy="126" r="22" fill="#2E75B6" opacity="0.15" stroke="none" stroke-width="0"/>
<circle cx="376" cy="126" r="22" fill="#2E75B6" opacity="0" stroke="#2E75B6" stroke-width="1.5"/>
<text x="376" y="133" font-family="Noto Sans JP,Hiragino Sans,Meiryo,sans-serif" font-size="18" fill="#2E75B6" font-weight="900" text-anchor="middle" opacity="1.0">2</text>
<text x="465" y="190" font-family="Noto Sans JP,Hiragino Sans,Meiryo,sans-serif" font-size="42" fill="#fff" font-weight="normal" text-anchor="middle" opacity="0.9">🔗</text>
<text x="465" y="250" font-family="Noto Sans JP,Hiragino Sans,Meiryo,sans-serif" font-size="22" fill="#fff" font-weight="bold" text-anchor="middle" opacity="1.0">API連携</text>
<text x="465" y="286" font-family="Noto Sans JP,Hiragino Sans,Meiryo,sans-serif" font-size="13" fill="#D8E6F2" font-weight="400" text-anchor="middle" opacity="0.8">SaaS連携バグ修正を</text>
<text x="465" y="308" font-family="Noto Sans JP,Hiragino Sans,Meiryo,sans-serif" font-size="13" fill="#D8E6F2" font-weight="400" text-anchor="middle" opacity="0.8">週末スポット依頼</text>
<rect x="620" y="90" width="250" height="280" fill="#fff" rx="14" opacity="0.08" stroke="none" stroke-width="0"/>
<rect x="620" y="90" width="250" height="280" fill="#fff" rx="14" opacity="0" stroke="#27AE60" stroke-width="1.5"/>
<rect x="620" y="90" width="250" height="8" fill="#27AE60" rx="0" opacity="1.0" stroke="none" stroke-width="0"/>
<circle cx="656" cy="126" r="22" fill="#27AE60" opacity="0.15" stroke="none" stroke-width="0"/>
<circle cx="656" cy="126" r="22" fill="#27AE60" opacity="0" stroke="#27AE60" stroke-width="1.5"/>
<text x="656" y="133" font-family="Noto Sans JP,Hiragino Sans,Meiryo,sans-serif" font-size="18" fill="#27AE60" font-weight="900" text-anchor="middle" opacity="1.0">3</text>
<text x="745" y="190" font-family="Noto Sans JP,Hiragino Sans,Meiryo,sans-serif" font-size="42" fill="#fff" font-weight="normal" text-anchor="middle" opacity="0.9">🛠</text>
<text x="745" y="250" font-family="Noto Sans JP,Hiragino Sans,Meiryo,sans-serif" font-size="22" fill="#fff" font-weight="bold" text-anchor="middle" opacity="1.0">社内ツール</text>
<text x="745" y="286" font-family="Noto Sans JP,Hiragino Sans,Meiryo,sans-serif" font-size="13" fill="#D8E6F2" font-weight="400" text-anchor="middle" opacity="0.8">Notion→Webアプリ移行を</text>
<text x="745" y="308" font-family="Noto Sans JP,Hiragino Sans,Meiryo,sans-serif" font-size="13" fill="#D8E6F2" font-weight="400" text-anchor="middle" opacity="0.8">タスク単位で依頼</text>
<rect x="900" y="90" width="250" height="280" fill="#fff" rx="14" opacity="0.08" stroke="none" stroke-width="0"/>
<rect x="900" y="90" width="250" height="280" fill="#fff" rx="14" opacity="0" stroke="#9B59B6" stroke-width="1.5"/>
<rect x="900" y="90" width="250" height="8" fill="#9B59B6" rx="0" opacity="1.0" stroke="none" stroke-width="0"/>
<circle cx="936" cy="126" r="22" fill="#9B59B6" opacity="0.15" stroke="none" stroke-width="0"/>
<circle cx="936" cy="126" r="22" fill="#9B59B6" opacity="0" stroke="#9B59B6" stroke-width="1.5"/>
<text x="936" y="133" font-family="Noto Sans JP,Hiragino Sans,Meiryo,sans-serif" font-size="18" fill="#9B59B6" font-weight="900" text-anchor="middle" opacity="1.0">4</text>
<text x="1025" y="190" font-family="Noto Sans JP,Hiragino Sans,Meiryo,sans-serif" font-size="42" fill="#fff" font-weight="normal" text-anchor="middle" opacity="0.9">🔬</text>
<text x="1025" y="250" font-family="Noto Sans JP,Hiragino Sans,Meiryo,sans-serif" font-size="22" fill="#fff" font-weight="bold" text-anchor="middle" opacity="1.0">PoC検証</text>
<text x="1025" y="286" font-family="Noto Sans JP,Hiragino Sans,Meiryo,sans-serif" font-size="13" fill="#D8E6F2" font-weight="400" text-anchor="middle" opacity="0.8">新規事業の技術検証を</text>
<text x="1025" y="308" font-family="Noto Sans JP,Hiragino Sans,Meiryo,sans-serif" font-size="13" fill="#D8E6F2" font-weight="400" text-anchor="middle" opacity="0.8">3日間のみ依頼</text>
</svg>
