<svg xmlns="http://www.w3.org/2000/svg" viewBox="0 0 1200 500" width="1200" height="500">
  <defs>
  <linearGradient id="cardBg" x1="0%" y1="0%" x2="0%" y2="100%">
    <stop offset="0%" stop-color="#F4F8FD"/>
    <stop offset="100%" stop-color="#E8F0FB"/>
  </linearGradient>
  </defs>
<rect width="1200" height="500" fill="url(#cardBg)"/>
<rect x="0" y="0" width="1200" height="8" fill="#1B3A5C" rx="0" opacity="1.0" stroke="none" stroke-width="0"/>
<text x="600" y="68" font-family="Noto Sans JP,Hiragino Sans,Meiryo,sans-serif" font-size="34" fill="#1B3A5C" font-weight="900" text-anchor="middle" opacity="1.0">マイクロ・マッチングの仕組み</text>
<text x="600" y="108" font-family="Noto Sans JP,Hiragino Sans,Meiryo,sans-serif" font-size="18" fill="#888888" font-weight="400" text-anchor="middle" opacity="1.0">企業とエンジニアをタスク単位でつなぐ新しいプラットフォーム</text>
<rect x="60" y="140" width="280" height="280" fill="#fff" rx="16" opacity="1" stroke="#D8E6F2" stroke-width="1.5"/>
<rect x="60" y="140" width="280" height="8" fill="#2E75B6" rx="0" opacity="1.0" stroke="none" stroke-width="0"/>
<rect x="170" y="175" width="60" height="80" fill="#2E75B6" rx="4" opacity="0.15" stroke="none" stroke-width="0"/>
<rect x="170" y="175" width="60" height="80" fill="#2E75B6" rx="4" opacity="0" stroke="#2E75B6" stroke-width="2"/>
<rect x="180" y="185" width="10" height="12" fill="#2E75B6" rx="2" opacity="0.3" stroke="none" stroke-width="0"/>
<rect x="200" y="185" width="10" height="12" fill="#2E75B6" rx="2" opacity="0.3" stroke="none" stroke-width="0"/>
<rect x="216" y="185" width="10" height="12" fill="#2E75B6" rx="2" opacity="0.3" stroke="none" stroke-width="0"/>
<rect x="180" y="203" width="10" height="12" fill="#2E75B6" rx="2" opacity="0.3" stroke="none" stroke-width="0"/>
<rect x="200" y="203" width="10" height="12" fill="#2E75B6" rx="2" opacity="0.3" stroke="none" stroke-width="0"/>
<rect x="216" y="203" width="10" height="12" fill="#2E75B6" rx="2" opacity="0.3" stroke="none" stroke-width="0"/>
<rect x="180" y="221" width="10" height="12" fill="#2E75B6" rx="2" opacity="0.3" stroke="none" stroke-width="0"/>
<rect x="200" y="221" width="10" height="12" fill="#2E75B6" rx="2" opacity="0.3" stroke="none" stroke-width="0"/>
<rect x="216" y="221" width="10" height="12" fill="#2E75B6" rx="2" opacity="0.3" stroke="none" stroke-width="0"/>
<rect x="180" y="239" width="10" height="12" fill="#2E75B6" rx="2" opacity="0.3" stroke="none" stroke-width="0"/>
<rect x="200" y="239" width="10" height="12" fill="#2E75B6" rx="2" opacity="0.3" stroke="none" stroke-width="0"/>
<rect x="216" y="239" width="10" height="12" fill="#2E75B6" rx="2" opacity="0.3" stroke="none" stroke-width="0"/>
<rect x="188" y="232" width="24" height="23" fill="#2E75B6" rx="2" opacity="0.5" stroke="none" stroke-width="0"/>
<text x="200" y="290" font-family="Noto Sans JP,Hiragino Sans,Meiryo,sans-serif" font-size="20" fill="#1B3A5C" font-weight="bold" text-anchor="middle" opacity="1.0">発注企業</text>
<rect x="90" y="310" width="110" height="28" fill="#F4F8FD" rx="6" opacity="1" stroke="#D8E6F2" stroke-width="1"/>
<text x="145" y="329" font-family="Noto Sans JP,Hiragino Sans,Meiryo,sans-serif" font-size="13" fill="#1B3A5C" font-weight="bold" text-anchor="middle" opacity="1.0">LP実装</text>
<rect x="230" y="310" width="110" height="28" fill="#F4F8FD" rx="6" opacity="1" stroke="#D8E6F2" stroke-width="1"/>
<text x="285" y="329" font-family="Noto Sans JP,Hiragino Sans,Meiryo,sans-serif" font-size="13" fill="#1B3A5C" font-weight="bold" text-anchor="middle" opacity="1.0">API連携</text>
<rect x="90" y="350" width="110" height="28" fill="#F4F8FD" rx="6" opacity="1" stroke="#D8E6F2" stroke-width="1"/>
<text x="145" y="369" font-family="Noto Sans JP,Hiragino Sans,Meiryo,sans-serif" font-size="13" fill="#1B3A5C" font-weight="bold" text-anchor="middle" opacity="1.0">AI開発</text>
<rect x="230" y="350" width="110" height="28" fill="#F4F8FD" rx="6" opacity="1" stroke="#D8E6F2" stroke-width="1"/>
<text x="285" y="369" font-family="Noto Sans JP,Hiragino Sans,Meiryo,sans-serif" font-size="13" fill="#1B3A5C" font-weight="bold" text-anchor="middle" opacity="1.0">バグ修正</text>
<circle cx="600" cy="280" r="72" fill="#1B3A5C" opacity="1" stroke="none" stroke-width="0"/>
<circle cx="600" cy="280" r="62" fill="#2E75B6" opacity="0.2" stroke="none" stroke-width="0"/>
<text x="600" y="270" font-family="Noto Sans JP,Hiragino Sans,Meiryo,sans-serif" font-size="22" fill="#fff" font-weight="900" text-anchor="middle" opacity="1.0">ANKEN</text>
<text x="600" y="298" font-family="Noto Sans JP,Hiragino Sans,Meiryo,sans-serif" font-size="14" fill="#F5A623" font-weight="bold" text-anchor="middle" opacity="1.0">マッチング</text>
<line x1="340" y1="280" x2="522" y2="280" stroke="#2E75B6" stroke-width="2.5" opacity="0.7"/>
<polygon points="522,280 508,272 508,288" fill="#2E75B6" opacity="0.7"/>
<line x1="678" y1="280" x2="860" y2="280" stroke="#2E75B6" stroke-width="2.5" opacity="0.7"/>
<polygon points="860,280 846,272 846,288" fill="#2E75B6" opacity="0.7"/>
<rect x="402" y="242" width="56" height="22" fill="#F5A623" rx="11" opacity="1.0" stroke="none" stroke-width="0"/>
<text x="430" y="257" font-family="Noto Sans JP,Hiragino Sans,Meiryo,sans-serif" font-size="13" fill="#fff" font-weight="bold" text-anchor="middle" opacity="1.0">依頼</text>
<rect x="732" y="242" width="56" height="22" fill="#F5A623" rx="11" opacity="1.0" stroke="none" stroke-width="0"/>
<text x="760" y="257" font-family="Noto Sans JP,Hiragino Sans,Meiryo,sans-serif" font-size="13" fill="#fff" font-weight="bold" text-anchor="middle" opacity="1.0">稼働</text>
<rect x="860" y="140" width="280" height="280" fill="#fff" rx="16" opacity="1" stroke="#D8E6F2" stroke-width="1.5"/>
<rect x="860" y="140" width="280" height="8" fill="#27AE60" rx="0" opacity="1.0" stroke="none" stroke-width="0"/>
<circle cx="920" cy="186" r="18" fill="#27AE60" opacity="0.2" stroke="none" stroke-width="0"/>
<circle cx="920" cy="186" r="18" fill="#27AE60" opacity="0" stroke="#27AE60" stroke-width="1.5"/>
<circle cx="1008" cy="186" r="18" fill="#27AE60" opacity="0.2" stroke="none" stroke-width="0"/>
<circle cx="1008" cy="186" r="18" fill="#27AE60" opacity="0" stroke="#27AE60" stroke-width="1.5"/>
<circle cx="1096" cy="186" r="18" fill="#27AE60" opacity="0.2" stroke="none" stroke-width="0"/>
<circle cx="1096" cy="186" r="18" fill="#27AE60" opacity="0" stroke="#27AE60" stroke-width="1.5"/>
<text x="1000" y="242" font-family="Noto Sans JP,Hiragino Sans,Meiryo,sans-serif" font-size="20" fill="#1B3A5C" font-weight="bold" text-anchor="middle" opacity="1.0">エンジニア</text>
<rect x="890" y="262" width="110" height="28" fill="#E6F4EA" rx="6" opacity="1" stroke="#A8D5B5" stroke-width="1"/>
<text x="945" y="281" font-family="Noto Sans JP,Hiragino Sans,Meiryo,sans-serif" font-size="13" fill="#27AE60" font-weight="bold" text-anchor="middle" opacity="1.0">フルスタック</text>
<rect x="1030" y="262" width="110" height="28" fill="#E6F4EA" rx="6" opacity="1" stroke="#A8D5B5" stroke-width="1"/>
<text x="1085" y="281" font-family="Noto Sans JP,Hiragino Sans,Meiryo,sans-serif" font-size="13" fill="#27AE60" font-weight="bold" text-anchor="middle" opacity="1.0">AI / LLM</text>
<rect x="890" y="302" width="110" height="28" fill="#E6F4EA" rx="6" opacity="1" stroke="#A8D5B5" stroke-width="1"/>
<text x="945" y="321" font-family="Noto Sans JP,Hiragino Sans,Meiryo,sans-serif" font-size="13" fill="#27AE60" font-weight="bold" text-anchor="middle" opacity="1.0">フロントエンド</text>
<rect x="1030" y="302" width="110" height="28" fill="#E6F4EA" rx="6" opacity="1" stroke="#A8D5B5" stroke-width="1"/>
<text x="1085" y="321" font-family="Noto Sans JP,Hiragino Sans,Meiryo,sans-serif" font-size="13" fill="#27AE60" font-weight="bold" text-anchor="middle" opacity="1.0">バックエンド</text>
<rect x="60" y="450" width="220" height="36" fill="#F5A623" rx="18" opacity="0.1" stroke="none" stroke-width="0"/>
<rect x="60" y="450" width="220" height="36" fill="#F5A623" rx="18" opacity="0" stroke="#F5A623" stroke-width="1.5"/>
<text x="170" y="473" font-family="Noto Sans JP,Hiragino Sans,Meiryo,sans-serif" font-size="14" fill="#F5A623" font-weight="bold" text-anchor="middle" opacity="1.0">固定費ゼロ</text>
<rect x="330" y="450" width="220" height="36" fill="#2E75B6" rx="18" opacity="0.1" stroke="none" stroke-width="0"/>
<rect x="330" y="450" width="220" height="36" fill="#2E75B6" rx="18" opacity="0" stroke="#2E75B6" stroke-width="1.5"/>
<text x="440" y="473" font-family="Noto Sans JP,Hiragino Sans,Meiryo,sans-serif" font-size="14" fill="#2E75B6" font-weight="bold" text-anchor="middle" opacity="1.0">スポット単位</text>
<rect x="600" y="450" width="220" height="36" fill="#27AE60" rx="18" opacity="0.1" stroke="none" stroke-width="0"/>
<rect x="600" y="450" width="220" height="36" fill="#27AE60" rx="18" opacity="0" stroke="#27AE60" stroke-width="1.5"/>
<text x="710" y="473" font-family="Noto Sans JP,Hiragino Sans,Meiryo,sans-serif" font-size="14" fill="#27AE60" font-weight="bold" text-anchor="middle" opacity="1.0">最短翌日稼働</text>
<rect x="870" y="450" width="220" height="36" fill="#1B3A5C" rx="18" opacity="0.1" stroke="none" stroke-width="0"/>
<rect x="870" y="450" width="220" height="36" fill="#1B3A5C" rx="18" opacity="0" stroke="#1B3A5C" stroke-width="1.5"/>
<text x="980" y="473" font-family="Noto Sans JP,Hiragino Sans,Meiryo,sans-serif" font-size="14" fill="#1B3A5C" font-weight="bold" text-anchor="middle" opacity="1.0">面談最小化</text>
</svg>
