<svg xmlns="http://www.w3.org/2000/svg" viewBox="0 0 1200 630" width="1200" height="630"><rect width="1200" height="630" fill="#0a1628"/><text x="600" y="50" font-family="sans-serif" font-size="24" fill="#e2e8f0" text-anchor="middle" font-weight="bold">週末スポットで実装された社内AIツール</text><rect x="40" y="90" width="350" height="460" rx="20" fill="#1d4ed8"/><text x="215" y="210" font-family="sans-serif" font-size="80" fill="#fff" text-anchor="middle" font-weight="normal">💬</text><text x="215" y="310" font-family="sans-serif" font-size="22" fill="#fff" text-anchor="middle" font-weight="bold">社内チャットbot</text><text x="215" y="350" font-family="sans-serif" font-size="16" fill="#bfdbfe" text-anchor="middle" font-weight="normal">FAQ・問い合わせ自動応答</text><rect x="65" y="390" width="300" height="80" rx="10" fill="rgba(0,0,0,0.25)"/><text x="215" y="438" font-family="sans-serif" font-size="15" fill="#6ee7b7" text-anchor="middle" font-weight="bold">週末2回で稼働開始</text><rect x="430" y="90" width="350" height="460" rx="20" fill="#7c3aed"/><text x="605" y="210" font-family="sans-serif" font-size="80" fill="#fff" text-anchor="middle" font-weight="normal">📊</text><text x="605" y="310" font-family="sans-serif" font-size="22" fill="#fff" text-anchor="middle" font-weight="bold">分析ダッシュボード</text><text x="605" y="350" font-family="sans-serif" font-size="16" fill="#bfdbfe" text-anchor="middle" font-weight="normal">レポート自動生成</text><rect x="455" y="390" width="300" height="80" rx="10" fill="rgba(0,0,0,0.25)"/><text x="605" y="438" font-family="sans-serif" font-size="15" fill="#6ee7b7" text-anchor="middle" font-weight="bold">週末2回で稼働開始</text><rect x="820" y="90" width="350" height="460" rx="20" fill="#b45309"/><text x="995" y="210" font-family="sans-serif" font-size="80" fill="#fff" text-anchor="middle" font-weight="normal">📄</text><text x="995" y="310" font-family="sans-serif" font-size="22" fill="#fff" text-anchor="middle" font-weight="bold">文書処理AI</text><text x="995" y="350" font-family="sans-serif" font-size="16" fill="#bfdbfe" text-anchor="middle" font-weight="normal">契約書・報告書の自動化</text><rect x="845" y="390" width="300" height="80" rx="10" fill="rgba(0,0,0,0.25)"/><text x="995" y="438" font-family="sans-serif" font-size="15" fill="#6ee7b7" text-anchor="middle" font-weight="bold">週末2回で稼働開始</text></svg>