<svg xmlns="http://www.w3.org/2000/svg" viewBox="0 0 1200 630" width="1200" height="630"><rect width="1200" height="630" fill="#0f2744"/><rect x="40" y="200" width="240" height="230" rx="20" fill="#1a4a8a"/><text x="160" y="270" font-family="sans-serif" font-size="64" fill="#fff" text-anchor="middle" font-weight="normal">🏢</text><text x="160" y="350" font-family="sans-serif" font-size="22" fill="#93c5fd" text-anchor="middle" font-weight="bold">企業</text><text x="160" y="380" font-family="sans-serif" font-size="16" fill="#93c5fd" text-anchor="middle" font-weight="normal">（発注者）</text><rect x="920" y="130" width="240" height="130" rx="16" fill="#1e5c99"/><text x="1040" y="175" font-family="sans-serif" font-size="40" fill="#fff" text-anchor="middle" font-weight="normal">👤</text><text x="1040" y="225" font-family="sans-serif" font-size="18" fill="#bfdbfe" text-anchor="middle" font-weight="bold">エンジニアA</text><rect x="920" y="290" width="240" height="130" rx="16" fill="#1e5c99"/><text x="1040" y="335" font-family="sans-serif" font-size="40" fill="#fff" text-anchor="middle" font-weight="normal">👤</text><text x="1040" y="385" font-family="sans-serif" font-size="18" fill="#bfdbfe" text-anchor="middle" font-weight="bold">エンジニアB</text><rect x="920" y="450" width="240" height="130" rx="16" fill="#1e5c99"/><text x="1040" y="495" font-family="sans-serif" font-size="40" fill="#fff" text-anchor="middle" font-weight="normal">👤</text><text x="1040" y="545" font-family="sans-serif" font-size="18" fill="#bfdbfe" text-anchor="middle" font-weight="bold">エンジニアC</text><line x1="300" y1="315" x2="860" y2="315" stroke="#38bdf8" stroke-width="4"/><polygon points="860,307 876,315 860,323" fill="#38bdf8"/><rect x="490" y="260" width="240" height="110" rx="16" fill="#0ea5e9"/><text x="610" y="305" font-family="sans-serif" font-size="22" fill="#fff" text-anchor="middle" font-weight="bold">タスク単位</text><text x="610" y="335" font-family="sans-serif" font-size="18" fill="#bae6fd" text-anchor="middle" font-weight="normal">マッチング</text><text x="600" y="560" font-family="sans-serif" font-size="20" fill="#64748b" text-anchor="middle" font-weight="normal">スポット・マイクロマッチングの仕組み</text></svg>