<svg xmlns="http://www.w3.org/2000/svg" viewBox="0 0 1200 630" width="1200" height="630"><rect width="1200" height="630" fill="#0a1628"/><text x="600" y="50" font-family="sans-serif" font-size="24" fill="#e2e8f0" text-anchor="middle" font-weight="bold">メガベンチャーエンジニア 副業成功事例</text><rect x="40" y="90" width="350" height="460" rx="20" fill="#1d4ed8"/><text x="215" y="210" font-family="sans-serif" font-size="80" fill="#fff" text-anchor="middle" font-weight="normal">📊</text><text x="215" y="310" font-family="sans-serif" font-size="22" fill="#fff" text-anchor="middle" font-weight="bold">ポートフォリオ構築</text><text x="215" y="350" font-family="sans-serif" font-size="16" fill="#bfdbfe" text-anchor="middle" font-weight="normal">副業案件が実績に</text><rect x="65" y="395" width="300" height="70" rx="10" fill="rgba(0,0,0,0.25)"/><text x="215" y="438" font-family="sans-serif" font-size="15" fill="#fde68a" text-anchor="middle" font-weight="bold">🌟 キャリアが広がる</text><rect x="430" y="90" width="350" height="460" rx="20" fill="#0891b2"/><text x="605" y="210" font-family="sans-serif" font-size="80" fill="#fff" text-anchor="middle" font-weight="normal">🤝</text><text x="605" y="310" font-family="sans-serif" font-size="22" fill="#fff" text-anchor="middle" font-weight="bold">スタートアップ参画</text><text x="605" y="350" font-family="sans-serif" font-size="16" fill="#bfdbfe" text-anchor="middle" font-weight="normal">人脈・ネットワーク獲得</text><rect x="455" y="395" width="300" height="70" rx="10" fill="rgba(0,0,0,0.25)"/><text x="605" y="438" font-family="sans-serif" font-size="15" fill="#fde68a" text-anchor="middle" font-weight="bold">🌟 キャリアが広がる</text><rect x="820" y="90" width="350" height="460" rx="20" fill="#059669"/><text x="995" y="210" font-family="sans-serif" font-size="80" fill="#fff" text-anchor="middle" font-weight="normal">🚀</text><text x="995" y="310" font-family="sans-serif" font-size="22" fill="#fff" text-anchor="middle" font-weight="bold">フリーランス準備</text><text x="995" y="350" font-family="sans-serif" font-size="16" fill="#bfdbfe" text-anchor="middle" font-weight="normal">スポット案件で実力証明</text><rect x="845" y="395" width="300" height="70" rx="10" fill="rgba(0,0,0,0.25)"/><text x="995" y="438" font-family="sans-serif" font-size="15" fill="#fde68a" text-anchor="middle" font-weight="bold">🌟 キャリアが広がる</text></svg>