<svg xmlns="http://www.w3.org/2000/svg" viewBox="0 0 1200 630" width="1200" height="630"><rect width="1200" height="630" fill="#0f172a"/><text x="600" y="50" font-family="sans-serif" font-size="28" fill="#e2e8f0" text-anchor="middle" font-weight="bold">開発リソース不足 3つのパターン</text><rect x="40" y="90" width="350" height="440" rx="20" fill="#dc2626"/><text x="215" y="200" font-family="sans-serif" font-size="90" fill="#fff" text-anchor="middle" font-weight="normal">🔥</text><text x="215" y="305" font-family="sans-serif" font-size="21" fill="#fff" text-anchor="middle" font-weight="bold">急な開発依頼</text><rect x="65" y="335" width="300" height="110" rx="10" fill="rgba(0,0,0,0.25)"/><text x="215" y="385" font-family="sans-serif" font-size="15" fill="#e2e8f0" text-anchor="middle" font-weight="normal">予算・リソースが追いつかない</text><rect x="65" y="460" width="300" height="50" rx="10" fill="rgba(255,255,255,0.15)"/><text x="215" y="492" font-family="sans-serif" font-size="14" fill="#fde68a" text-anchor="middle" font-weight="bold">→ スポット発注で解決</text><rect x="430" y="90" width="350" height="440" rx="20" fill="#b45309"/><text x="605" y="200" font-family="sans-serif" font-size="90" fill="#fff" text-anchor="middle" font-weight="normal">📈</text><text x="605" y="305" font-family="sans-serif" font-size="21" fill="#fff" text-anchor="middle" font-weight="bold">繁忙期スパイク</text><rect x="455" y="335" width="300" height="110" rx="10" fill="rgba(0,0,0,0.25)"/><text x="605" y="385" font-family="sans-serif" font-size="15" fill="#e2e8f0" text-anchor="middle" font-weight="normal">一時的な増員が必要</text><rect x="455" y="460" width="300" height="50" rx="10" fill="rgba(255,255,255,0.15)"/><text x="605" y="492" font-family="sans-serif" font-size="14" fill="#fde68a" text-anchor="middle" font-weight="bold">→ スポット発注で解決</text><rect x="820" y="90" width="350" height="440" rx="20" fill="#7c3aed"/><text x="995" y="200" font-family="sans-serif" font-size="90" fill="#fff" text-anchor="middle" font-weight="normal">🧩</text><text x="995" y="305" font-family="sans-serif" font-size="21" fill="#fff" text-anchor="middle" font-weight="bold">専門スキル不足</text><rect x="845" y="335" width="300" height="110" rx="10" fill="rgba(0,0,0,0.25)"/><text x="995" y="385" font-family="sans-serif" font-size="15" fill="#e2e8f0" text-anchor="middle" font-weight="normal">社内に該当技術者がいない</text><rect x="845" y="460" width="300" height="50" rx="10" fill="rgba(255,255,255,0.15)"/><text x="995" y="492" font-family="sans-serif" font-size="14" fill="#fde68a" text-anchor="middle" font-weight="bold">→ スポット発注で解決</text></svg>