<svg xmlns="http://www.w3.org/2000/svg" viewBox="0 0 1200 630" width="1200" height="630"><rect width="1200" height="630" fill="#0f2744"/><text x="600" y="55" font-family="sans-serif" font-size="30" fill="#e2e8f0" text-anchor="middle" font-weight="bold">マイクロ・マッチングの仕組み</text><rect x="40" y="150" width="260" height="260" rx="20" fill="#1d4ed8"/><text x="170" y="240" font-family="sans-serif" font-size="80" fill="#fff" text-anchor="middle" font-weight="normal">🏢</text><text x="170" y="340" font-family="sans-serif" font-size="22" fill="#bfdbfe" text-anchor="middle" font-weight="bold">中小企業</text><text x="170" y="375" font-family="sans-serif" font-size="16" fill="#93c5fd" text-anchor="middle" font-weight="normal">（発注者）</text><rect x="370" y="150" width="200" height="80" rx="12" fill="#0f4c81"/><text x="430" y="180" font-family="sans-serif" font-size="28" fill="#fff" text-anchor="middle" font-weight="normal">🐛</text><text x="510" y="180" font-family="sans-serif" font-size="18" fill="#93c5fd" text-anchor="start" font-weight="normal">バグ修正</text><rect x="370" y="250" width="200" height="80" rx="12" fill="#0f4c81"/><text x="430" y="280" font-family="sans-serif" font-size="28" fill="#fff" text-anchor="middle" font-weight="normal">🔗</text><text x="510" y="280" font-family="sans-serif" font-size="18" fill="#93c5fd" text-anchor="start" font-weight="normal">API連携</text><rect x="370" y="350" width="200" height="80" rx="12" fill="#0f4c81"/><text x="430" y="380" font-family="sans-serif" font-size="28" fill="#fff" text-anchor="middle" font-weight="normal">✨</text><text x="510" y="380" font-family="sans-serif" font-size="18" fill="#93c5fd" text-anchor="start" font-weight="normal">機能追加</text><line x1="580" y1="280" x2="720" y2="280" stroke="#38bdf8" stroke-width="4"/><polygon points="720,272 736,280 720,288" fill="#38bdf8"/><rect x="760" y="150" width="400" height="260" rx="20" fill="#065f46"/><text x="960" y="240" font-family="sans-serif" font-size="80" fill="#fff" text-anchor="middle" font-weight="normal">👤</text><text x="960" y="330" font-family="sans-serif" font-size="22" fill="#6ee7b7" text-anchor="middle" font-weight="bold">即戦力エンジニア</text><text x="960" y="365" font-family="sans-serif" font-size="16" fill="#a7f3d0" text-anchor="middle" font-weight="normal">スポット対応</text></svg>