<svg xmlns="http://www.w3.org/2000/svg" viewBox="0 0 1200 630" width="1200" height="630"><rect width="1200" height="630" fill="#0c0a1e"/><text x="600" y="55" font-family="sans-serif" font-size="28" fill="#e2e8f0" text-anchor="middle" font-weight="bold">AI特化エンジニアをスポットで活用</text><rect x="60" y="110" width="500" height="420" rx="20" fill="#1e1b4b"/><text x="310" y="200" font-family="sans-serif" font-size="100" fill="#fff" text-anchor="middle" font-weight="normal">🤖</text><text x="310" y="315" font-family="sans-serif" font-size="26" fill="#c4b5fd" text-anchor="middle" font-weight="bold">AI特化エンジニア</text><text x="310" y="355" font-family="sans-serif" font-size="18" fill="#a5b4fc" text-anchor="middle" font-weight="normal">週末・スポット稼働</text><rect x="110" y="390" width="400" height="36" rx="8" fill="#312e81"/><text x="310" y="415" font-family="sans-serif" font-size="16" fill="#e0e7ff" text-anchor="middle" font-weight="normal">LLM / ChatGPT API</text><rect x="110" y="435" width="400" height="36" rx="8" fill="#312e81"/><text x="310" y="460" font-family="sans-serif" font-size="16" fill="#e0e7ff" text-anchor="middle" font-weight="normal">RAG・ベクトルDB</text><rect x="110" y="480" width="400" height="36" rx="8" fill="#312e81"/><text x="310" y="505" font-family="sans-serif" font-size="16" fill="#e0e7ff" text-anchor="middle" font-weight="normal">Next.js + Python</text><rect x="620" y="110" width="520" height="420" rx="20" fill="#0f2744"/><text x="880" y="190" font-family="sans-serif" font-size="24" fill="#93c5fd" text-anchor="middle" font-weight="bold">社内AIツール</text><rect x="640" y="240" width="480" height="60" rx="10" fill="#1e3a5f"/><text x="700" y="277" font-family="sans-serif" font-size="28" fill="#fff" text-anchor="start" font-weight="normal">💬</text><text x="900" y="277" font-family="sans-serif" font-size="18" fill="#bfdbfe" text-anchor="middle" font-weight="normal">社内チャットbot</text><rect x="640" y="320" width="480" height="60" rx="10" fill="#1e3a5f"/><text x="700" y="357" font-family="sans-serif" font-size="28" fill="#fff" text-anchor="start" font-weight="normal">📊</text><text x="900" y="357" font-family="sans-serif" font-size="18" fill="#bfdbfe" text-anchor="middle" font-weight="normal">レポート自動生成</text><rect x="640" y="400" width="480" height="60" rx="10" fill="#1e3a5f"/><text x="700" y="437" font-family="sans-serif" font-size="28" fill="#fff" text-anchor="start" font-weight="normal">📄</text><text x="900" y="437" font-family="sans-serif" font-size="18" fill="#bfdbfe" text-anchor="middle" font-weight="normal">文書処理AI</text><rect x="640" y="480" width="480" height="60" rx="10" fill="#1e3a5f"/><text x="700" y="517" font-family="sans-serif" font-size="28" fill="#fff" text-anchor="start" font-weight="normal">🔍</text><text x="900" y="517" font-family="sans-serif" font-size="18" fill="#bfdbfe" text-anchor="middle" font-weight="normal">データ分析ツール</text></svg>