<svg xmlns="http://www.w3.org/2000/svg" viewBox="0 0 1200 630" width="1200" height="630"><rect width="1200" height="630" fill="#0f1f3d"/><text x="600" y="50" font-family="sans-serif" font-size="28" fill="#e2e8f0" text-anchor="middle" font-weight="bold">技術スタック別 副業単価イメージ</text><rect x="20" y="115" width="300" height="75" rx="10" fill="#1e3a5f"/><text x="170" y="160" font-family="sans-serif" font-size="18" fill="#e2e8f0" text-anchor="middle" font-weight="bold">AI / LLM</text><rect x="330" y="115" width="900" height="75" rx="10" fill="#f59e0b"/><text x="1245" y="160" font-family="sans-serif" font-size="16" fill="#fde68a" text-anchor="start" font-weight="normal">◆ 高単価</text><rect x="20" y="210" width="300" height="75" rx="10" fill="#1e3a5f"/><text x="170" y="255" font-family="sans-serif" font-size="18" fill="#e2e8f0" text-anchor="middle" font-weight="bold">フルスタック</text><rect x="330" y="210" width="720" height="75" rx="10" fill="#3b82f6"/><text x="1065" y="255" font-family="sans-serif" font-size="16" fill="#fde68a" text-anchor="start" font-weight="normal">◆ 高単価</text><rect x="20" y="305" width="300" height="75" rx="10" fill="#1e3a5f"/><text x="170" y="350" font-family="sans-serif" font-size="18" fill="#e2e8f0" text-anchor="middle" font-weight="bold">バックエンド</text><rect x="330" y="305" width="600" height="75" rx="10" fill="#8b5cf6"/><text x="945" y="350" font-family="sans-serif" font-size="16" fill="#fde68a" text-anchor="start" font-weight="normal">◆ 高単価</text><rect x="20" y="400" width="300" height="75" rx="10" fill="#1e3a5f"/><text x="170" y="445" font-family="sans-serif" font-size="18" fill="#e2e8f0" text-anchor="middle" font-weight="bold">フロントエンド</text><rect x="330" y="400" width="540" height="75" rx="10" fill="#06b6d4"/><text x="885" y="445" font-family="sans-serif" font-size="16" fill="#fde68a" text-anchor="start" font-weight="normal">◆ 高単価</text><rect x="20" y="495" width="300" height="75" rx="10" fill="#1e3a5f"/><text x="170" y="540" font-family="sans-serif" font-size="18" fill="#e2e8f0" text-anchor="middle" font-weight="bold">モバイル</text><rect x="330" y="495" width="480" height="75" rx="10" fill="#10b981"/><text x="825" y="540" font-family="sans-serif" font-size="16" fill="#fde68a" text-anchor="start" font-weight="normal">◆ 高単価</text><rect x="40" y="590" width="1120" height="30" rx="8" fill="#1e3a5f"/><text x="600" y="610" font-family="sans-serif" font-size="15" fill="#475569" text-anchor="middle" font-weight="normal">← 単価水準 →</text></svg>