<svg xmlns="http://www.w3.org/2000/svg" viewBox="0 0 1200 630" width="1200" height="630"><rect width="1200" height="630" fill="#0a1628"/><text x="600" y="55" font-family="sans-serif" font-size="30" fill="#e2e8f0" text-anchor="middle" font-weight="bold">こんな案件があります</text><rect x="60" y="110" width="320" height="200" rx="20" fill="#1d4ed8"/><text x="220" y="185" font-family="sans-serif" font-size="60" fill="#fff" text-anchor="middle" font-weight="normal">🤖</text><text x="220" y="265" font-family="sans-serif" font-size="20" fill="#e2e8f0" text-anchor="middle" font-weight="bold">AI・LLM開発</text><rect x="460" y="110" width="320" height="200" rx="20" fill="#0891b2"/><text x="620" y="185" font-family="sans-serif" font-size="60" fill="#fff" text-anchor="middle" font-weight="normal">⚛️</text><text x="620" y="265" font-family="sans-serif" font-size="20" fill="#e2e8f0" text-anchor="middle" font-weight="bold">フロントエンド</text><rect x="860" y="110" width="320" height="200" rx="20" fill="#7c3aed"/><text x="1020" y="185" font-family="sans-serif" font-size="60" fill="#fff" text-anchor="middle" font-weight="normal">🔧</text><text x="1020" y="265" font-family="sans-serif" font-size="20" fill="#e2e8f0" text-anchor="middle" font-weight="bold">バックエンド</text><rect x="60" y="360" width="320" height="200" rx="20" fill="#b45309"/><text x="220" y="435" font-family="sans-serif" font-size="60" fill="#fff" text-anchor="middle" font-weight="normal">📱</text><text x="220" y="515" font-family="sans-serif" font-size="20" fill="#e2e8f0" text-anchor="middle" font-weight="bold">モバイル</text><rect x="460" y="360" width="320" height="200" rx="20" fill="#059669"/><text x="620" y="435" font-family="sans-serif" font-size="60" fill="#fff" text-anchor="middle" font-weight="normal">🔗</text><text x="620" y="515" font-family="sans-serif" font-size="20" fill="#e2e8f0" text-anchor="middle" font-weight="bold">API連携</text><rect x="860" y="360" width="320" height="200" rx="20" fill="#dc2626"/><text x="1020" y="435" font-family="sans-serif" font-size="60" fill="#fff" text-anchor="middle" font-weight="normal">🛠️</text><text x="1020" y="515" font-family="sans-serif" font-size="20" fill="#e2e8f0" text-anchor="middle" font-weight="bold">社内ツール</text></svg>