<svg xmlns="http://www.w3.org/2000/svg" viewBox="0 0 1200 630" width="1200" height="630"><rect width="1200" height="630" fill="#0f172a"/><text x="600" y="50" font-family="sans-serif" font-size="28" fill="#e2e8f0" text-anchor="middle" font-weight="bold">PoC推進のアプローチ比較</text><rect x="40" y="100" width="500" height="440" rx="20" fill="#7f1d1d"/><text x="290" y="185" font-family="sans-serif" font-size="80" fill="#fff" text-anchor="middle" font-weight="normal">🏔️</text><text x="290" y="280" font-family="sans-serif" font-size="26" fill="#fca5a5" text-anchor="middle" font-weight="bold">大規模PoC</text><rect x="80" y="315" width="420" height="44" rx="8" fill="#991b1b"/><text x="290" y="344" font-family="sans-serif" font-size="16" fill="#fecaca" text-anchor="middle" font-weight="normal">❌ 計画に数ヶ月</text><rect x="80" y="370" width="420" height="44" rx="8" fill="#991b1b"/><text x="290" y="399" font-family="sans-serif" font-size="16" fill="#fecaca" text-anchor="middle" font-weight="normal">❌ リソース大量投入</text><rect x="80" y="425" width="420" height="44" rx="8" fill="#991b1b"/><text x="290" y="454" font-family="sans-serif" font-size="16" fill="#fecaca" text-anchor="middle" font-weight="normal">❌ 失敗リスク大</text><rect x="660" y="100" width="500" height="440" rx="20" fill="#064e3b"/><text x="910" y="185" font-family="sans-serif" font-size="80" fill="#fff" text-anchor="middle" font-weight="normal">⚡</text><text x="910" y="280" font-family="sans-serif" font-size="26" fill="#6ee7b7" text-anchor="middle" font-weight="bold">スモールPoC</text><rect x="680" y="315" width="460" height="44" rx="8" fill="#065f46"/><text x="910" y="344" font-family="sans-serif" font-size="16" fill="#a7f3d0" text-anchor="middle" font-weight="normal">✅ 週末2回で完成</text><rect x="680" y="370" width="460" height="44" rx="8" fill="#065f46"/><text x="910" y="399" font-family="sans-serif" font-size="16" fill="#a7f3d0" text-anchor="middle" font-weight="normal">✅ 少人数・低コスト</text><rect x="680" y="425" width="460" height="44" rx="8" fill="#065f46"/><text x="910" y="454" font-family="sans-serif" font-size="16" fill="#a7f3d0" text-anchor="middle" font-weight="normal">✅ 即フィードバック</text><text x="600" y="330" font-family="sans-serif" font-size="28" fill="#64748b" text-anchor="middle" font-weight="bold">VS</text></svg>