<svg xmlns="http://www.w3.org/2000/svg" viewBox="0 0 1200 630" width="1200" height="630"><rect width="1200" height="630" fill="#0c1a2e"/><text x="600" y="50" font-family="sans-serif" font-size="28" fill="#e2e8f0" text-anchor="middle" font-weight="bold">スポット外注 依頼の流れ</text><rect x="50" y="110" width="200" height="380" rx="20" fill="#1d4ed8"/><text x="150" y="195" font-family="sans-serif" font-size="64" fill="#fff" text-anchor="middle" font-weight="normal">📋</text><text x="150" y="280" font-family="sans-serif" font-size="24" fill="#fff" text-anchor="middle" font-weight="bold">①</text><text x="150" y="320" font-family="sans-serif" font-size="16" fill="#e2e8f0" text-anchor="middle" font-weight="bold">タスク定義</text><polygon points="260,300 290,285 290,315" fill="#38bdf8"/><rect x="280" y="110" width="200" height="380" rx="20" fill="#0891b2"/><text x="380" y="195" font-family="sans-serif" font-size="64" fill="#fff" text-anchor="middle" font-weight="normal">📝</text><text x="380" y="280" font-family="sans-serif" font-size="24" fill="#fff" text-anchor="middle" font-weight="bold">②</text><text x="380" y="320" font-family="sans-serif" font-size="16" fill="#e2e8f0" text-anchor="middle" font-weight="bold">案件投稿</text><polygon points="490,300 520,285 520,315" fill="#38bdf8"/><rect x="510" y="110" width="200" height="380" rx="20" fill="#7c3aed"/><text x="610" y="195" font-family="sans-serif" font-size="64" fill="#fff" text-anchor="middle" font-weight="normal">🤝</text><text x="610" y="280" font-family="sans-serif" font-size="24" fill="#fff" text-anchor="middle" font-weight="bold">③</text><text x="610" y="320" font-family="sans-serif" font-size="16" fill="#e2e8f0" text-anchor="middle" font-weight="bold">エンジニア選定</text><polygon points="720,300 750,285 750,315" fill="#38bdf8"/><rect x="740" y="110" width="200" height="380" rx="20" fill="#b45309"/><text x="840" y="195" font-family="sans-serif" font-size="64" fill="#fff" text-anchor="middle" font-weight="normal">⚙️</text><text x="840" y="280" font-family="sans-serif" font-size="24" fill="#fff" text-anchor="middle" font-weight="bold">④</text><text x="840" y="320" font-family="sans-serif" font-size="16" fill="#e2e8f0" text-anchor="middle" font-weight="bold">開発スプリント</text><polygon points="950,300 980,285 980,315" fill="#38bdf8"/><rect x="970" y="110" width="200" height="380" rx="20" fill="#059669"/><text x="1070" y="195" font-family="sans-serif" font-size="64" fill="#fff" text-anchor="middle" font-weight="normal">✅</text><text x="1070" y="280" font-family="sans-serif" font-size="24" fill="#fff" text-anchor="middle" font-weight="bold">⑤</text><text x="1070" y="320" font-family="sans-serif" font-size="16" fill="#e2e8f0" text-anchor="middle" font-weight="bold">納品・確認</text><text x="600" y="560" font-family="sans-serif" font-size="20" fill="#64748b" text-anchor="middle" font-weight="normal">最短即日から稼働・週末だけの活用もOK</text></svg>