<svg xmlns="http://www.w3.org/2000/svg" viewBox="0 0 1200 630" width="1200" height="630"><rect width="1200" height="630" fill="#0a1628"/><text x="600" y="50" font-family="sans-serif" font-size="26" fill="#e2e8f0" text-anchor="middle" font-weight="bold">こんなエンジニアが活用しています</text><rect x="40" y="90" width="350" height="480" rx="20" fill="#1d4ed8"/><text x="215" y="145" font-family="sans-serif" font-size="18" fill="#bfdbfe" text-anchor="middle" font-weight="bold">Case 1</text><text x="215" y="220" font-family="sans-serif" font-size="72" fill="#fff" text-anchor="middle" font-weight="normal">🖥️</text><text x="215" y="305" font-family="sans-serif" font-size="20" fill="#fff" text-anchor="middle" font-weight="bold">バックエンドエンジニア</text><rect x="60" y="330" width="310" height="60" rx="10" fill="rgba(0,0,0,0.2)"/><text x="215" y="368" font-family="sans-serif" font-size="16" fill="#e2e8f0" text-anchor="middle" font-weight="normal">土曜午後のみ稼働</text><rect x="60" y="400" width="310" height="60" rx="10" fill="rgba(0,0,0,0.2)"/><text x="215" y="438" font-family="sans-serif" font-size="16" fill="#e2e8f0" text-anchor="middle" font-weight="normal">月3万円の副収入</text><rect x="430" y="90" width="350" height="480" rx="20" fill="#7c3aed"/><text x="605" y="145" font-family="sans-serif" font-size="18" fill="#bfdbfe" text-anchor="middle" font-weight="bold">Case 2</text><text x="605" y="220" font-family="sans-serif" font-size="72" fill="#fff" text-anchor="middle" font-weight="normal">⚛️</text><text x="605" y="305" font-family="sans-serif" font-size="20" fill="#fff" text-anchor="middle" font-weight="bold">フロントエンドリード</text><rect x="450" y="330" width="310" height="60" rx="10" fill="rgba(0,0,0,0.2)"/><text x="605" y="368" font-family="sans-serif" font-size="16" fill="#e2e8f0" text-anchor="middle" font-weight="normal">週末スタートアップ案件</text><rect x="450" y="400" width="310" height="60" rx="10" fill="rgba(0,0,0,0.2)"/><text x="605" y="438" font-family="sans-serif" font-size="16" fill="#e2e8f0" text-anchor="middle" font-weight="normal">スキルアップ＋収入</text><rect x="820" y="90" width="350" height="480" rx="20" fill="#059669"/><text x="995" y="145" font-family="sans-serif" font-size="18" fill="#bfdbfe" text-anchor="middle" font-weight="bold">Case 3</text><text x="995" y="220" font-family="sans-serif" font-size="72" fill="#fff" text-anchor="middle" font-weight="normal">🚀</text><text x="995" y="305" font-family="sans-serif" font-size="20" fill="#fff" text-anchor="middle" font-weight="bold">プロダクトエンジニア</text><rect x="840" y="330" width="310" height="60" rx="10" fill="rgba(0,0,0,0.2)"/><text x="995" y="368" font-family="sans-serif" font-size="16" fill="#e2e8f0" text-anchor="middle" font-weight="normal">独立準備の実績積み</text><rect x="840" y="400" width="310" height="60" rx="10" fill="rgba(0,0,0,0.2)"/><text x="995" y="438" font-family="sans-serif" font-size="16" fill="#e2e8f0" text-anchor="middle" font-weight="normal">クライアント経験獲得</text></svg>